<mxfile host="app.diagrams.net" modified="2022-05-09T21:38:22.735Z" agent="5.0 (Windows NT 10.0; Win64; x64) AppleWebKit/537.36 (KHTML, like Gecko) Chrome/101.0.4951.54 Safari/537.36" etag="KTswb3CrKFRXGi6tUJNX" version="18.0.2" type="github">
  <diagram name="Page-1" id="5f0bae14-7c28-e335-631c-24af17079c00">
    <mxGraphModel dx="-83" dy="1756" grid="1" gridSize="10" guides="1" tooltips="1" connect="1" arrows="1" fold="1" page="1" pageScale="1" pageWidth="1100" pageHeight="850" background="none" math="0" shadow="0">
      <root>
        <mxCell id="0" />
        <mxCell id="1" parent="0" />
        <mxCell id="EZaMfleqCFQmTcPry3QN-63" value="" style="rounded=1;whiteSpace=wrap;html=1;fillColor=none;dashed=1;strokeWidth=2;" vertex="1" parent="1">
          <mxGeometry x="1260" y="306.21" width="930" height="683.79" as="geometry" />
        </mxCell>
        <mxCell id="EZaMfleqCFQmTcPry3QN-64" value="" style="outlineConnect=0;dashed=0;verticalLabelPosition=bottom;verticalAlign=top;align=center;html=1;shape=mxgraph.aws3.virtual_private_cloud;fillColor=#F58534;gradientColor=none;" vertex="1" parent="1">
          <mxGeometry x="1265" y="276.21000000000004" width="79.5" height="50" as="geometry" />
        </mxCell>
        <mxCell id="EZaMfleqCFQmTcPry3QN-61" value="" style="rounded=1;whiteSpace=wrap;html=1;labelBackgroundColor=none;fontSize=15;fontColor=#10739E;fillColor=none;dashed=1;strokeWidth=2;" vertex="1" parent="1">
          <mxGeometry x="1260" y="101.21000000000004" width="470" height="160" as="geometry" />
        </mxCell>
        <mxCell id="EZaMfleqCFQmTcPry3QN-53" value="" style="shape=image;verticalLabelPosition=bottom;labelBackgroundColor=default;verticalAlign=top;aspect=fixed;imageAspect=0;image=data:image/png,iVBORw0KGgoAAAANSUhEUgAAARYAAABXCAYAAADBPmoyAAAgAElEQVR4nO2d2XMcx53nv3X1hT7RaKABNEAcJEASvCSLMCV6JJmSZdGyZHFnwxH22H7YnZh5mr9gHjb8um/7shG7sRuxsw/2ho+RvLJW1lA0JdGmaFAiSIIAD4DEfTbQFxp91LkPYBaquqv6ABqgZ5yfiAoS1VWVWVWZ3/zlL3+ZxaytrWmgUCiUBsI+6wxQKJR/e1BhoVAoDYcKC4VCaThUWCgUSsOhwkKhUBoOFRYKhdJwqLBQKJSGQ4WFQqE0HCosFAql4VBhoVAoDYcKC4VCaThUWCgUSsOhwkKhUBoOFRYKhdJw9l1YWJaFoij7nYxluhQK5dnA7+fFWZbF1atXMTMzc6AVXVVVnD17FidOnICqqgeWLoVC2WbfhIVlWSwtLeG9995DNpvdr2RsmZqawk9/+lPwPE/FhUI5YPZNWBiGwa9+9Susrq6C5/fVMLLkyZMn+Pzzz/Haa68deNoUyl86+1LjWZbF3bt38ac//Qk8zz8zf8evf/1rnDx5EpFIhFotFMoBsi81XlEU/Pa3v4Wqqs9MVFiWxdraGq5cuQJNo8v6UigHScNrPcuy+OKLLzA2NvZMukBGHA4Hrly5gkePHtFRIgrlAGlobSNWwgcffPBnYSWwLItsNosPPvjgmQx5Uyh/qTRUWBiGwdWrVzE3N1fRWmEU2XKrKQ1FBiMWTFsleJ7H2NgY7t27R60WCuWAaFhfhWVZzMzM4MqVKxUrMKPIyPlbIHqCpv2OXAqezDo0rrIgFQ6fgeb2ms+dGQO3mbY9V5Zl/OxnP8ORI0fg8XioI5dC2WcaJiwMw+C9995DJpOBIAi2x8mCC+O9z0MRPIZc8OACIZz64p/h2EpbX18sINV7CvMvXETU3wRVcOi/uTsOwX/557ZpsiyLJ0+e4Pr16/jWt75V/81RKJS6aEjfgGVZTExM4ObNmxVFBQDSnYOI+1uRcHv1LdXahXjPENaHvmHbtdE4Hg+efwPLze0oNgUh+5v1bevUeeT7TlfsTjkcDnz44YdYW1ujXSIKZZ/Zcw1jWRb5fB6//OUvIYoiZFm23BhVhtgUxFTbYfMFeB5aOAqwLKaPvICivwWMWDSfKxaRPPw1JNp6IGvAvKiafDMq70D+uW8ADGubvqqqmJ+fx29+8xtomvavVlxYltXzTv5v3KyOrXRMrenVc75duo26TiNpVF73mt5BXucg7nXPXSGGYTA5OQlVVXHs2DHb42RJxAeBAWw43OYfWmPQXNv7Mk0BTLx0Cf/+yWdQGE4/pKBquPH8G8DTm06qQJckgxW2s88oMoqHjiI//DpOrk1CtvG1KIqCpaUlLC8vo7m5uerIldvthqqqUFUVkiSZftM0DS6Xq+L5wPa8JVEULX9jGAZOp7PqcaXnkPRL8wQAgiDA4/FAlmVsbm5aXsPn81VNh5BOl3dNBUGwvHeWZaGqKtLpNAqFAgqFAorFoj4ix3EcnE4nXC4X/H4/3O7t927l82JZFhsbG5Z5CofDe/aTkQqUTqeRyWSwtbUFSZJQKGxbzDzPw+VywePxwOv1IhwO2+a1HuLxuOkaqqrC4XAgFArVdZ10Oo1cLle2PxgM6mXKCmIIpFKpst9kWYbH42nI892zsOTzeQiCgLfffrvicSMLcSwvmYd82zwerAZbTPtOnDiNN46aC35RY/Ax2gHD6fOiikOGXpcqOJF94TW8qA3Ay5WrLincsiwjm83WNPzc0tICt9uNVCqlFzhyLUVREIvFqip8PB5HsVgsywe5vtPpBMuyWF9ftxWC0nSNf8uyufvn8/lw+PBh3UKTZdk0QifLMnp6ehAMBqsWnsXFRayuruqCQc6PRCLo7+8vOz+dTmNpaQnpdBqyLEMURUiSpB/HsiwYhoHD4YDL5UIgEEBPT49lRWAYBhMTE2XPDAC++c1vVsx3LaTTaUxPTyMejyOfz6NY3LaSiVizLAtBEMBxHFwuF1paWjAwMAC/37+r+WcsyyIej+Pzzz/XGytgu4EQBAHf+9736rI47t+/j/v375f9dvHiRUSjUVuxzufzuHbtGhYXF02/SZIERVHw6quvoqWlpezcetmzsGxubiIYDOqKbsd/mt4CYK44hZaoboUQ/r4F6HH1lJ3/N0kN/3mD0f+2slqkpgBW3C686imWnW+sgJqmmSq7FYqioFgswuPxoFgsYmtrCwD0QqFpWtXI4o2NDaRSKZNlpKoqZFmGz+eDx7PtwGYYBtlsFpubm2XD9CTfxGoqLTDkeqXwPA+Hw4GNjQ04HA7T8aurqwgEAhXvv1AoYG5uDoVCAQzD6PerKAp6e3v1e2LZ7e7n48ePdXG0yg+w/UxVVUWhUEAmk0E8Hkcmk0EkEkF3d3dZhV1fX9fzTJ7FXoIuiUCOj49jYWEBGxsbFa1EURR1UYvH49jY2EA0GsXx48d1a7ZWGIbB7du3MTMzAwCmMiGKIubm5tDX11fTNRmGwfr6OiYnJ03vFgCKxaJu1Rohy5f8/ve/x927d03lX5IkbG5uYnh4GK2trQ0ZNd2TsJCbEATB0iwnfLqQxI24WVRYfwhpb7Np39tNGgZd1jf1lk/BRxkOY9LOQ1sQVXSX+IqvFHn08DK6+Z38ECEwpV+ldShtJcnDNlo+lUgmk0gkEmXpqqoKn8+H9vZ28Dxvmy+joJB/7VohKxiGQWdnZ1l3gmVZJBIJrK+v286hYlkW09PTpkLKMAxkWUY4HEYkEtH9VJlMBtPT01hZWUGxWKz6XI2/E5FLpVLY3NzE0aNH4XQ6y4TEeM5ufQAkr48ePcLk5CSy2Sw4jqt6HjlG0zQsLS0hHo8jmUxieHgYfr+/pkrIsixyuRwmJyf1fcbKz7IsxsbGcOjQIUtRsINhGF1oJUmyHTghonLlyhV8+eWXEEXRJNCFQgFnzpzBG2+8UZOLoBZ27alRVRXZbBY8z1dsRRK5PP7boxXzTo6HFuk0WSsdLPC3zfYvqZkHfhLS4DQ894QKxItmAVhQOfw+t5MfK1FpBHYFgGVZJJNJbGxsWHa3mpqa0N7eDrfbbZkvRVFMTnAiKJW6blbPX9M0uN1udHR0WIrk0tKS5TWJb2N1dbXsHIZh0N/fD4ZhwLIsCoUC7t+/j/n5eUiStGvHcLFYxOzsLO7evWvqcjYq3ojk9c6dO5iYmEA+n7cUlVKHfykcxyGfz2NychLXr19HIpGo6Z4ZhsGTJ0+Qz+ctf+d5Ho8fP65rxJKUa0mSIEmSqRtXiqZpGBkZwbVr13RLhdxjPp9HLBbDm2++qTcYjWDXwkJM5GpcnkvgXsb8QFlfEJrbY9r3g6CGPmflm/orr4pX3OZj1iQFqmSuIKMyjwlxW70b9aBKC7lVwSSt4sbGhmXBdDgcaGtrsxQV0k0ghYQICql8DMOA4zjTJggCBEGA0+nUBb40X+3t7WUtGWlB4/F4WUFWFAUzMzN6/ozO61gshnA4DE3ToCgKHj16hHg8XvG5kS6Z0+nUzfZS64u0qAsLC1W7qLtB0zSMjo5ienra1tJ0u90YGBjA0NCQvlVyck9PT+Orr75CoVCoKgaFQgG3bt2y/Z1hGBSLRYyNjdVlsQAwiaDVvbEsi9HRUXz66aeQJMl0fUmSEI1G8Z3vfAft7e0NbYB31RUi/fpq/d2FTA7/ZzZp3sk9HV42MCRoeNtf3Znq0hT8MMjiszyD4tNnIGnAoqigS9ipUFmGw28KThxxqWAbNEeI+BjsIK3i8vKypSXAMAwikQg8Ho/lC7Tr6hAHstU5xkJC0nQ4HKbrCIKAjo4OzM7OlonO/Pw8gsEgXC6XLmIrKytIp9NgGMZk7fE8j56eHr0LNDMzU+YANN5LW1sbfD4fmpqawHGc7qfZ3NxEPp/HwsKCnibJ78DAgO53ahQsy2JhYQGTk5O2FW9gYABtbW2IRCKmMt3Z2an7Mqwc69PT0wgGgxgeHq6Y/vz8PNbW1irmUxAETE5O4ty5czV1sUrFTNO0MlFiWRa3b9/GJ598gnQ6bXr/mqYhFArh4sWLOHLkSMOt+rqFhWVZveBV4788WsNUvsQ5Fukos1b+Y0hFuEpOyIjICTeHHwUY/M/UTvobKuAuKmhx7jy4KYXHaEHAWUFumElt9/CJpZJMJiGKYlkFZhgGLS0tdQ3zEgKBAPx+/67zqWkaotEo4vG4PjxJ8ieKIpaWltDb26t3Sebm5qBpmr4B2y3hkSNH4PV6oaoqisUipqamLAWU53nEYjF0dnbC7XbD4XCYygpxiAYCAd2BSvxBAwMDln6n3ULE/vbt25ai4na7ceLECfT39+tD30YOHTqEjo4OBINB3Lx5s2yIVlEU3LlzB319fbZDtIqi4OHDh1XzyjAMtra28PDhw4pCVStk5Ojy5ctIJBJlouJyufDWW29hcHBwz2lZpl/vCcViEYVCoaKzFgDurWfwu2VzDATrCwLNraZ9r7g1vOyzL0hEUEgh5lUFP/CJiJbkfFUqL+S/ywvY0CpHAu8VUnjj8Ti2trYsu0gtLS1obm62OLs2jBW9lq0UnufR1dUFhmFMz5NlWayuriKTyYBhGCwsLCCTyZSJis/nQ1dXl26tzM7OWsZQAEBvby8GBwcRDAb1ro8xb4IgwO12o7e3F8eOHYPf70ckEsGxY8caKioA9HuyshZYlsWJEyf0ER67ZykIAvr7+zE8PGxpoedyOTx69Mgy38RfNTc3V1N+SbfF6GfaLVNTU/j444+xvr5uKSqvvvoqTp8+ved07KhbWMhNlzqLjA9dURT81werQEmLpoXbyoeXm80OWSOlokL2hRgF3w+YX6SkAeuiOb3ZEkduPdRi5XAch2KxiLW1NUvfgKIoCIfDaG5urrvvTGhElLCmaWhubtZDAozPVVVVLC4uIh6PY35+vkycJElCf38/BEHQfSsLCwtleSLdn76+vqoCQX6LRCIYGhrCsWPH4PV6bZ3ZxjJQ7/IXCwsLZftkWUZ3dzcGBwfBsmzVvGqahv7+fsvWXRAEzM7O2nZ/x8fHy0RYVVV0dnaiubnZVM4YhsHa2hrm5uZ2/c45jsPS0hI+/vhjLC0tmeoluc/h4WGcO3duXyfj1px7Yiobx/2N4mJ0EH6xnMa19ZLhZW8QmsfcFbjk03DSbW0+lgoKsOOHUFUV73hFPM+bf18Ty1/urzMMJmVHXS9KUZSaWs6trS2sra2VLRZO8u73+9HS0rJrUVEURQ9cMt673VYJlmXR1dVV1gBomoZEIoGHDx+WtZQkGK61tVW/RqFQsB3dqLcro2ka2trabIc4jeWgXmEheV1ZWSn7jWEYDA0N6WJZa15PnDhh2WWKx+Nl8TCke/zgwQPLa50/fx4DAwOmsALyDsfGxna9ftDi4iI+/PDDsqVLjKLy0ksv1XXvu6Hm5lxRFGSz2bK+KvmbCMtqroj/PlVienI8tFbz8PJRQcPfhexFxaqiGB9EABJ+4BFxb9MH8eluUQM2RAVhx7bptyEqmJcZ/K9NB/7RX4DHIiLXKv1alXx9fR2FQqGsECiKgqamJkSj0aotYiVUVcX6+rptRS5NMxwO2zr+NE2D1+tFc3OzqWsgSRI0TUMulyvrxrEsiyNHjuj3QAL5rPB6vQgGg7uqEHbPR1GUmmJNrGAYBolEAplMpqwLQyJp63kvmqYhEAggEAiUvQ9itfb09OjPnmEYzMzMIJvNlsXukIBAp9OJL7/8Evl8Xj+G4zhMTk5icXER3d3dNZdF0niNjIxgdnbWMpr59OnTuHDhAnw+374vxFazsBQKBduhOjI8CgAfPlnDaMps+rFeP1RPk2nfX/s1xByaXhBLA9Cq3bimaTjrVvCaouGjrR2LYFVUEGIBluew+tSC+SzP4HsCi6+5dwq9VYGtVVRIHkk0rlVlIqMtu215yHmpVAqZTKbq8aqqQhCEihG1qqqiq6sL6XQa+XxeH+kiz1r3Y/E8ZFlGLBZDKBQyvQs730q9DuaDIJ/PQ1GUMmEJBAK7siJ5nofX6y3b73A4dCc4QZZl3LlzpywdTdN030Y4HMbAwABu3LiBpqbt+sFxHHK5HO7evYtDhw7Vncfl5WXbuUJnz55FIBA4kNUUa+ofkLgHK4iFUSgUsJzN49dzJZGe3iBaW6NoZaFvA4KGVz2Sfm6xWNQ3OwekFR6ew0+8RbBbWX2Ts1ms5EVsiIrJkvl5zqMPoZKAs1LfTSVRKTXL7bprhEpCXAulE9Vq6QZVKzCapukBeiTvxuFkcg0yGa2np6esC2lsRIwcxPrGjagQsixbdmdqxWo4XBAEUzeSDDEvLS2ZhEVVVQSDQQwMDOhD7adOnSoLG+B5HlNTU9jc3Kzb11JJMK3mFu0Xu/IQ1Vq5wHFApAOtwQCiTk7f2h0cXOxOH98YEFbv/AstlwXiS6YtvpnVrRU7SismyQMJOCq9JxLhWGvhTqVS+lBqveynU03TNLS3t8Pv95vuxWjBSZKErq4uW4fqs6IRwlKxvO6BUnEYHx8vO0aW5bLAu2g0ip6enrK6lM1mMTo6umv/nBXXr1+3zNd+UJOwqKoKj8dTVVBa3Q68G9uZ/s00BaA2eZFSt7smZEuzPD7LbftkSlt1o6OyGjlZxf94vA41m9rZ8ptgWE63VgDAwQA/8OQsC5QkSbpTmjij7QSkHuFTFMXSqVfrubuhVn+Ew+FAb2+vbaH1+Xzo7Oy0/J3Mxi5lL9bZfmGVf47j9vRlTivLXZIkBINBPc14PI7p6WnTEhdEoIPBIBYWFrC6uorV1VXE43GTBWlkZGSk5gj3UkotfzLX65NPPsH6+npDBcuKmu1Xsv5GpUKvKAre6mvFtUQeo5tFOFraUASw8tTvwfA7Bf9yjscZB4+QUj5mb0yj0iS7W+ub+P1aif8hHIXaZO4Hv+LWcEwQAZjNUmO3SJbligvdkAjR0lB0IrpWsQeSJGFlZQWxWKzmF1kqXC0tLTV3M/x+f00WhqqqaGlpQTAYtPTfxGIxS/8QmX9khdX6Hs8STdPg8/nKZv/yPI9MJgNRFOF0OuuyyIrFIhKJRNl+SZLQ3t4OYCcWZXNzEw6HwzQrHIAe2m8sZ3ZCl0gkMD8/jyNHjtTc2JCQgPb2diQSie2F0p6WPZ7nsbCwgKtXr+LSpUv7OjJUs7BwHAe/349kMlnxuDa3A/9hIIp/mClAa/IB2s5oTYtBWNIsj98WnPgxZ9962AkMwzBIFBX8vGy6AAdHSxRGG+Ewr+Ennjxc7E7FJt0eq+Hs0rSMWImL0+lENBpFKpWyrFzJZBJut7vmNS5K8xSJRGr24hvD42s51ufzWQqLlYMS2LFcS/cB28KysrKC1tbWmgsr8XnVMnJWrxWnqipCoRACgUDZPRaLRUxPT+P48eM1X5dhGKysrGB9fb2sfPh8Pt15nc1m8fDhQ3AcZ/JHkXSmpqYsr281M5nnedy8eVNfUqIWZFlGNBrFa6+9hvHxcdy8eRMul0sXHFmWMTIygvb2drzyyiv75sit2ceiqiq8Xq+eSTsURcHZVh9ejkVN3ZE1FUiW+D1uiALmNPvVrsj1Sh2rDMPgX+Y3MJLcMh/c3Lbt1zHw1+4i+tiCfg+ku2P3QCt1d0oLlCAIiEajCAaDiEajtl8AiMfj2NzcrGq1lJ5L/uY4rupygo1aUrAaLpdLD+0vdYJPTEyUTXSzg5jm9+/fRzKZrHrObioAz/OIRqNl53Ich7GxsZp9YAzDIJfLYWxsrKzLJ0kSOjo69JGY8fFxfTSKlDNj+mTiaOlmhSAIePDgARYWFmq2eMPhMN544w2cOnUKr7zyClpbW3W/IYk5k2UZly9fxuzs7L51ieoujcFgsGrrIqgK/r5ZhWDIs6htd4lK+Uj2olhDI2sUl/W8iH+eN1srjMcPtLSbxOwEp+KvnHmTU7baVASgNnEh8QihUAiqquozl61aFkmSsLS0VNEPQWYQW+V1P525Rmpdn6Srq6uswnAch1QqhYcPHyKXy4FhGMtCS/bncjlMTEzg7t27GBsbQyqVsi3ku21VNU1DX19fmejyPI9UKoXbt28jm81WrFwMw0CSJNy6dQuPHz82da0kSUI+n9cDA0VRxMjISEMdxJIk4d69ezULwPDwMIaGhnQnPfkqhbHscRyHTCaDjz76qOr975a6hcXpdNY0me6oQ8YbTWYBKmpAqmROz11ZwG2xtvk8xJT739MbmDauw8JxYFo7TdaKwAA/9OTg1+SqVooVpIKXQgqpoihl8398Ph+i0WjZOcB2zMvS0pKtKJPRsdIFwIGdyljrtltqMbdVVUUsFrONh5iamsLExASWlpb0QDKSL03TkM1mMTMzgzt37mB8fByKomBubg5jY2O2Vt1uK6lxmkHpNcgaKDdu3MDS0pJuaRk3TdMQj8dx69Yt3Lt3z7T+iSiKyOfz6OzsRH9/PwBgZmbGchkJnufR1NQEt9tddSuFYRg8ePCgovAaIUJKGsfTp0/jxRdfLDuO4zhMTEzgD3/4w740XHUHH5C+qyzLVdfO+LuAhIc5DlPqToVfLioIMGZH7hXZi+NsDj618vVYlsXYxhZ+Nmt2oDEeH1SvWezO8gqe43IQxdosFCvsrJtK3Y5IJIJsNotUKlV23Orqqr5YcSWMVlE8Hq9rUpqiKGhpaan6GRbj8fVGtzqdThw+fBijo6OWz252dhbxeBytra0IBAL6/UiShEQigeXlZWxubprSnZ2dBQCcP3++YgVSlO3ZwrWIjc/nQywWw5kzZ7C2tlbma5FlGRMTE0gmk/o6wMQiURQF6XRaj0cBtis5GeUjI0Evv/yyHlB49+7dMqe3LMs4fvw4Ojo6qo4QchyHR48eYXZ21iTyqVQKo6OjuHDhQt0iy3Ec3nzzTSwvL+PevXum4DmO43Dt2jV0dnbi5MmTz349Fo7j4PV6qwpLjJPxN34GP03tFKCiBiREBWGDsCxyTtyQNXyLrXw9UQP+aa5k1XiOAxOOwvhIwizwQ2cGglJdVIDqXY3Sl1lJWBiGQUdHh75As/FYTdOwvLwMt9uNpqamqi+SZVl9IlmtL53MRq5VWGRZrltYyCS6bDZruXwCx3HY3NwsEw8AeuWySpOsD2y1zozx75GRkZqGtzs7O9HR0YFQKIQzZ85gZGQEyWTS9GwcDgeWl5exsrKCpqYmk7CQmd4Oh0O3UohfyeVy4dy5c+jq6gKw7UczrnlD8u10OvHSSy/VtJYsx3EIhUL6urjGe7xx4wbOnz9f8b1aBZeqqgqXy4WLFy9ieXm5bF2Wra0tvP/+++ju7kYgEHi2K8ipqgq3213TcN1rAQ3HOPMDXVMBraTAfJbnsFjBkcuyLD5bTuGPGyWjSKEIVK85nPybXB5HGetI4d1Qz/wh8iLJPCFynqqq+pobi4uLdb1AY3xNtc0Yol/P/RFnY63xKBzHYXBwED09PeB5viyKufTaZCOr35USDofx3HPPWa5oV/o3qeCVNhKfBGw/+/7+fjz33HMIBAL6syKQYeFsNotEIoFEIoF0Om0rKl6vF1//+tf1qFlN03D79m09PXJ/kiTh6NGjiEQiAKp/z4cs/UlGEEkeybyn6elpy0aNjPjYlVNVVdHT04OLFy9adnfn5uZw+fLlmh3vtbDroQQy/FytEDdpMv42IJocuUUNSJasVZtkBfxOth7mBIBNBfinJ+bpAozbB0Q6Tfv6WBVv8dafad0LVjEslY4NhUJoa2vTu4zGir++vl62pizBznqoZVSo3gmP5H7IpzrItIpaz+U4DsePH8fhw4d1J7bVMH6lazidTvT29uL06dN66293bLUARaOAlQoky7I4fvw4zp07h+7ubt0pSzaHw2G5EVEh8SCxWAznz5/HuXPnwHEcNE1DOp3Wh5iN6TEMgxdeeKFmi5A0SidPnizLvyAIuH79uv5sjSNyRGwrDUyoqorh4WGcPXvW9DyJ9XXlyhV89dVXDROWXU/wIA/B5XKhWCxWfHgX/MC5vIZrecNkQRUIKSoYw4zjW7KAC5wT/bz5WzQAcHU+hccFc4FlWqLQStL9d44tdBmWU7ASgNICaldYjfdUKiq1FJZoNIqNjQ19pXxS6cniyk1NTWWOcI7jTHN46qWeVqc0zqJeJx6JQRkcHEQ4HNbnt5CPf1UaWfN4PPq8pYGBAdvPadjNg7ISL2NltLO8BgcHEYlEMD4+jsXFRf2bUcblC4zOTzLiFwqFEI1Gcfr0acRiMf034hcxzlAm99jd3a0fWyuapuHkyZMYGRkpW6yb5Lm7u1ufY2ekWsgBx3G4ePEi1tbWcO/ePdPxoiji/fffRywWQywW23OXaM8zx4LBIB4+fKivQmbHN7eAa+4BfemEogasF2W0OHmTuPy/LQHfSz+Goij6AtKiquGX82Y1Ztzesi5QYCuNQ8kHWDA831IBICMFZDYpYD/qQALT3G43fD6ffi1S+au9SIZhTK2wUSxlWUYul9OtPrLcAbl2PYWRrD8syzJcLldZtKkVJDLV6Eg2+gXqLVitra3w+XzY2NhAMplEJpNBLpczja6RZSpJQFkkEkEwGLT9AFhnZ6etw7Nal61YLCIajepdFYKqqmhubsaLL76IlZUVrKysIJlM6v4dIixEoP1+P0KhECKRCLq6uiwFUBRFdHd36/FGwLbADw0NlaVfDZK/s2fPYmpqytR1yefz2NjYQHd3ty7IxjJIfJ926amqikAggG9/+9uQJMnS/7W6uqoL115g1tbW9iRNHMdhdHQUv/jFLypWBkZT8X+Pfgurh8+Y9h/igJDn6RKGHA/fl5/g2IM/QtF2FFhUNXzY9hw2yEJRLAe26zBUn2GJAFXF10Y+wNdW7kHmrCsWCfL78Y9/XFMkbCAQ0FsmqwJeyydWycxwO9G1+sRqveaoKIpwOBz6+STf1ShduIvQ1NS064A7cl4ul8PW1pbpvlwuF1iWRSAQ0CtMJauGfFFxN6iqiqamJtugRWNe80Mui/wAAAPRSURBVPk8MpmM6ThZluFwOGr6FCz5pKzxmqqqwu/3V/zcqR0sy+p5Kr0nj8eDQCCAXC6HdDpd9p7C4XBN786uK06uv9ch6D1bLJqmYXBwEF6vF6Ojo7axEAILHEv/Fvn2XmSadgRhRQWCT7tEQm4T3j98gMXCFiTVfO6g7MT1I18H8HR42WdedyS8OoO221cxXeGBSJKEt99+G319fTVVXqOFUYuI2F2DVCi765emUW+lJgW/UgWwwul0WsZO7KVQkXPJd4/tjqmWBmld90K1dMhvTqcTbW1tVY+z+40sAFXPeZUggyN287JImbJ6vrWmSeY22V1/r+xZWMhDuHTpEu7fv6+bkqVoANxbCfRP/BGjZ7+j7y9qQEqUEXI74Bv9FGw2Dc3hAs+azw2uPUZray/WQu1gwm2m4WWmkMfg6CeAptoKm6puL3L03e9+V5+jcpDUk95B5m0/09rrtf+1PIf9yGct1/xzy7ORhqzOo6oqjh49ivPnz+PKlSsVW/fInU/R1jkASdgxEUUGEDgFjptXoDlszlVVHJ+5DdnjBwqZ7e0pnpVZBOcnoHH2tyOKIt566y20tLTs28QrCoWyTcOW/WIYBu+++y5u3bqFra0tW3OelwoY+uJ9FFzmoWVXIQsum7IVFo3j4d5K4OjMbWBpwvSbL7kIqCpgs6atqqo4fPgwvvGNb/xZLVxEofxbpWHCoqoq2tvb8frrr+O9996zFRaN4+Fam4OVfNhaKwaCK+XTzjWOt7VWyHDhj370I/2LfxQKZX9p6Fx7TdNw4cIF9Pb2VvTmEyEo3WpKo87zRFHE6dOncfToUSoqFMoB0VBhUdXtlckuXbq070vf1ZqfcDiMd955Z9efkaBQKPXT8NWBVFXF888/j1OnTj3zdVBFUcTFixfR399PrRUK5QDZl2XHOI7DO++8A0EQnlmFJhG2L7/8MnXYUigHzL4Ii6qqGBoawvnz522/Q7OfkMCo73//+/rkOAqFcnDs21emNE3Du+++i/HxcaRSqZrmrzQKURTR19eHl156iYoKhfIM2DdhIV2RS5cuYWxs7EC+lEdQFAWvv/667eQ2CoWyv+x5EmI1WJbF1tZW2cpg+wnDMLue20OhUPbOvpsRZJap3Ryi/UqTQqE8Ow6kf0IqOq3wFMpfBgdjQlAolL8oqLBQKJSGQ4WFQqE0HCosFAql4VBhoVAoDYcKC4VCaThUWCgUSsOhwkKhUBoOFRYKhdJwqLBQKJSGQ4WFQqE0HCosFAql4VBhoVAoDYcKC4VCaThUWCgUSsOhwkKhUBrO/wf9qDsQWvgAQwAAAABJRU5ErkJggg==;" vertex="1" parent="1">
          <mxGeometry x="1344.5" y="143.21" width="309.28" height="96.79" as="geometry" />
        </mxCell>
        <mxCell id="EZaMfleqCFQmTcPry3QN-62" value="" style="sketch=0;aspect=fixed;html=1;points=[];align=center;image;fontSize=12;image=img/lib/mscae/OpenShift.svg;labelBackgroundColor=none;fontColor=#10739E;" vertex="1" parent="1">
          <mxGeometry x="1260" y="80" width="50" height="46" as="geometry" />
        </mxCell>
        <mxCell id="EZaMfleqCFQmTcPry3QN-72" value="Pathfinder SSO Login Proxy" style="text;html=1;strokeColor=none;fillColor=none;align=center;verticalAlign=middle;whiteSpace=wrap;rounded=0;fontStyle=0;fontSize=14;" vertex="1" parent="1">
          <mxGeometry x="1332.75" y="143.21" width="353.5" height="30" as="geometry" />
        </mxCell>
        <mxCell id="EZaMfleqCFQmTcPry3QN-76" value="RDS PostgreSQL FAM DB" style="outlineConnect=0;dashed=0;verticalLabelPosition=bottom;verticalAlign=top;align=center;html=1;shape=mxgraph.aws3.rds;fillColor=#2E73B8;gradientColor=none;fontSize=14;" vertex="1" parent="1">
          <mxGeometry x="2042.5" y="353" width="72" height="81" as="geometry" />
        </mxCell>
        <mxCell id="EZaMfleqCFQmTcPry3QN-113" style="edgeStyle=orthogonalEdgeStyle;rounded=0;orthogonalLoop=1;jettySize=auto;html=1;fontSize=17;fontColor=#000000;" edge="1" parent="1" source="EZaMfleqCFQmTcPry3QN-80" target="EZaMfleqCFQmTcPry3QN-76">
          <mxGeometry relative="1" as="geometry" />
        </mxCell>
        <mxCell id="EZaMfleqCFQmTcPry3QN-80" value="FAM Runtime Authorization Lookup" style="outlineConnect=0;dashed=0;verticalLabelPosition=bottom;verticalAlign=top;align=center;html=1;shape=mxgraph.aws3.lambda_function;fillColor=#F58534;gradientColor=none;labelBackgroundColor=none;fontSize=14;fontColor=#000000;labelPosition=center;" vertex="1" parent="1">
          <mxGeometry x="1782.5" y="357.5" width="72.5" height="72" as="geometry" />
        </mxCell>
        <mxCell id="EZaMfleqCFQmTcPry3QN-112" style="edgeStyle=orthogonalEdgeStyle;rounded=0;orthogonalLoop=1;jettySize=auto;html=1;fontSize=17;fontColor=#000000;" edge="1" parent="1" source="EZaMfleqCFQmTcPry3QN-81" target="EZaMfleqCFQmTcPry3QN-76">
          <mxGeometry relative="1" as="geometry" />
        </mxCell>
        <mxCell id="EZaMfleqCFQmTcPry3QN-81" value="FAM REST API" style="outlineConnect=0;dashed=0;verticalLabelPosition=bottom;verticalAlign=top;align=center;html=1;shape=mxgraph.aws3.lambda_function;fillColor=#F58534;gradientColor=none;labelBackgroundColor=none;fontSize=14;fontColor=#000000;labelPosition=center;" vertex="1" parent="1">
          <mxGeometry x="2042.25" y="560" width="72.5" height="72" as="geometry" />
        </mxCell>
        <mxCell id="EZaMfleqCFQmTcPry3QN-111" style="edgeStyle=orthogonalEdgeStyle;rounded=0;orthogonalLoop=1;jettySize=auto;html=1;fontSize=17;fontColor=#000000;" edge="1" parent="1" source="EZaMfleqCFQmTcPry3QN-84" target="EZaMfleqCFQmTcPry3QN-81">
          <mxGeometry relative="1" as="geometry" />
        </mxCell>
        <mxCell id="EZaMfleqCFQmTcPry3QN-84" value="API Gateway" style="outlineConnect=0;dashed=0;verticalLabelPosition=bottom;verticalAlign=top;align=center;html=1;shape=mxgraph.aws3.api_gateway;fillColor=#D9A741;gradientColor=none;rounded=1;fontSize=14;fontColor=#000000;strokeWidth=2;" vertex="1" parent="1">
          <mxGeometry x="2040.5" y="787" width="76.5" height="93" as="geometry" />
        </mxCell>
        <mxCell id="EZaMfleqCFQmTcPry3QN-88" value="" style="rounded=1;whiteSpace=wrap;html=1;fillColor=none;dashed=1;strokeWidth=2;" vertex="1" parent="1">
          <mxGeometry x="1304.5" y="553" width="410" height="370" as="geometry" />
        </mxCell>
        <mxCell id="EZaMfleqCFQmTcPry3QN-52" value="" style="outlineConnect=0;dashed=0;verticalLabelPosition=bottom;verticalAlign=top;align=center;html=1;shape=mxgraph.aws3.cognito;fillColor=#AD688B;gradientColor=none;fontSize=14;" vertex="1" parent="1">
          <mxGeometry x="1300" y="520" width="76.5" height="93" as="geometry" />
        </mxCell>
        <mxCell id="EZaMfleqCFQmTcPry3QN-89" value="AWS Cognito Identity Broker" style="text;html=1;strokeColor=none;fillColor=none;align=center;verticalAlign=middle;whiteSpace=wrap;rounded=0;dashed=1;fontSize=14;fontColor=#000000;" vertex="1" parent="1">
          <mxGeometry x="1421.75" y="520" width="220" height="30" as="geometry" />
        </mxCell>
        <mxCell id="EZaMfleqCFQmTcPry3QN-114" style="edgeStyle=orthogonalEdgeStyle;rounded=0;orthogonalLoop=1;jettySize=auto;html=1;exitX=0.5;exitY=0;exitDx=0;exitDy=0;entryX=0;entryY=0.5;entryDx=0;entryDy=0;entryPerimeter=0;fontSize=17;fontColor=#000000;" edge="1" parent="1" source="EZaMfleqCFQmTcPry3QN-93" target="EZaMfleqCFQmTcPry3QN-80">
          <mxGeometry relative="1" as="geometry" />
        </mxCell>
        <mxCell id="EZaMfleqCFQmTcPry3QN-93" value="FAM User Pool" style="shape=module;align=left;spacingLeft=20;align=center;verticalAlign=top;rounded=1;fontSize=14;fontColor=#000000;strokeWidth=2;fillColor=none;" vertex="1" parent="1">
          <mxGeometry x="1400" y="573" width="274.5" height="320" as="geometry" />
        </mxCell>
        <mxCell id="EZaMfleqCFQmTcPry3QN-99" style="edgeStyle=orthogonalEdgeStyle;rounded=0;orthogonalLoop=1;jettySize=auto;html=1;fontSize=14;fontColor=#000000;entryX=0.5;entryY=1;entryDx=0;entryDy=0;" edge="1" parent="1" source="EZaMfleqCFQmTcPry3QN-94" target="EZaMfleqCFQmTcPry3QN-101">
          <mxGeometry relative="1" as="geometry" />
        </mxCell>
        <mxCell id="EZaMfleqCFQmTcPry3QN-94" value="IDIR IDP" style="shape=module;align=left;spacingLeft=20;align=center;verticalAlign=top;rounded=1;fontSize=14;fontColor=#000000;strokeWidth=2;fillColor=none;" vertex="1" parent="1">
          <mxGeometry x="1425.5" y="624" width="100" height="50" as="geometry" />
        </mxCell>
        <mxCell id="EZaMfleqCFQmTcPry3QN-100" style="edgeStyle=orthogonalEdgeStyle;rounded=0;orthogonalLoop=1;jettySize=auto;html=1;fontSize=14;fontColor=#000000;" edge="1" parent="1" source="EZaMfleqCFQmTcPry3QN-95" target="EZaMfleqCFQmTcPry3QN-105">
          <mxGeometry relative="1" as="geometry">
            <Array as="points" />
          </mxGeometry>
        </mxCell>
        <mxCell id="EZaMfleqCFQmTcPry3QN-95" value="BCeID IDP" style="shape=module;align=left;spacingLeft=20;align=center;verticalAlign=top;rounded=1;fontSize=14;fontColor=#000000;strokeWidth=2;fillColor=none;" vertex="1" parent="1">
          <mxGeometry x="1542.5" y="624" width="116.5" height="50" as="geometry" />
        </mxCell>
        <mxCell id="EZaMfleqCFQmTcPry3QN-97" style="edgeStyle=orthogonalEdgeStyle;rounded=0;orthogonalLoop=1;jettySize=auto;html=1;fontSize=14;fontColor=#000000;" edge="1" parent="1" source="EZaMfleqCFQmTcPry3QN-96" target="EZaMfleqCFQmTcPry3QN-94">
          <mxGeometry relative="1" as="geometry">
            <Array as="points">
              <mxPoint x="1451" y="740" />
              <mxPoint x="1451" y="740" />
            </Array>
          </mxGeometry>
        </mxCell>
        <mxCell id="EZaMfleqCFQmTcPry3QN-98" style="edgeStyle=orthogonalEdgeStyle;rounded=0;orthogonalLoop=1;jettySize=auto;html=1;entryX=0.25;entryY=1;entryDx=0;entryDy=0;fontSize=14;fontColor=#000000;" edge="1" parent="1" source="EZaMfleqCFQmTcPry3QN-96" target="EZaMfleqCFQmTcPry3QN-95">
          <mxGeometry relative="1" as="geometry">
            <Array as="points">
              <mxPoint x="1475" y="720" />
              <mxPoint x="1572" y="720" />
            </Array>
          </mxGeometry>
        </mxCell>
        <mxCell id="EZaMfleqCFQmTcPry3QN-96" value="Other Client" style="shape=module;align=left;spacingLeft=20;align=center;verticalAlign=top;rounded=1;fontSize=14;fontColor=#000000;strokeWidth=2;fillColor=none;" vertex="1" parent="1">
          <mxGeometry x="1426" y="763" width="101.5" height="57" as="geometry" />
        </mxCell>
        <mxCell id="EZaMfleqCFQmTcPry3QN-102" value="" style="group" vertex="1" connectable="0" parent="1">
          <mxGeometry x="1280" y="-70" width="210" height="100" as="geometry" />
        </mxCell>
        <mxCell id="EZaMfleqCFQmTcPry3QN-55" value="" style="shape=image;verticalLabelPosition=bottom;labelBackgroundColor=default;verticalAlign=top;aspect=fixed;imageAspect=0;image=data:image/png,iVBORw0KGgoAAAANSUhEUgAAAZkAAAB7CAMAAACRgA3BAAAAdVBMVEX///8kg8UbgMT6/f4Xf8P0+v1mp9cAfMNXndEAesPf7PYnh8mYwuNsqdf7/f7u9vu82O2v0Ok9ks5Gl9A6jcuDtdzl8PjF3e+Jut+ozOfP4/LX6PS21Ovg7vfN4vFOmdB2r9qexuRfodQAdcGRveC2z+h+stwwG3H+AAAQ7klEQVR4nO1d65qyOLOVomLQqCAgKNiijtv7v8SdEwhJoHWm1f5s1o+Z92k5xKykslKHOJmM+Fvw5+9uwQg3tnT/7iaMcGGHAOW7GzHCRu55HsTZu5sxwsQ8Bk4NHt/djhEGSICeAF28uyUjOlgdFTHcoEXvbsuINk41MZyaUQX8IqxvxHiQjtuaX4M5A69FTTIKtF+CMGgTw6k5k3c3aYTEFL0ucPnuJo0QWFDPxKidfwMimxhu0NbvbtaI0sELZ4YV727YX4efgpua0YP2ZgTm6t+ogGoUaO/EtY8YTs323Y37yzi5Vv+GmlEFvA1OWdZaa/J3N/CvomSDxHiQfr27iX8TZY8sa1EzCrR3wE++I4YvNcEo0F6PY78sa1FzfHcz/x4WNjHAYf5t9KC9GnuTA0SWBEHMLL/zmIP2UhyYEZKBYx6uJpNVuUhNKT160F6IuSHLMLhFmFeX7rQBNgq0l4FUBjFHv/1xbsyn0YP2MiyNWREYnx+6Bo2OIc4XwQpiWskyhnCju3c08+8hMmSZw6lMjF3omB74CuSmXmahfdGuO61gdG4+H6Whlz1wrSJfBnuQjgLtychia4vpCsOY5owLtJGap8I/W04Zp6FaBRaB01E7PxNbh7fsPmbG6PNTsXMEMd3WrLJDBPiodg45fqLVfwCmXlYdvnFcmbnCnexBgRYzlvxIuz8ec1OWKWsWOy7du4I3D4Y4SwoAhx9q+0eDWLJMd7hjGzl1XvpYiPOEjDkn5AgDfUl/EPjmpWVPIBqvq/vfV+HmjPGo6L7Fpje6TK36P7LsuRjvD3HOkeYnHJ0H32Lbm1vm0lzE3vfoi+8OcS4o+gV9OJHAb+Qc+RvTbd0/Y5x9nfWlPN1dYJtgMFnFGOueDo/Tpcb0yP+2nS51z6+nU/nM7XQx8bcplTeUx9hj1ek/fuv/AeR9Mwa8HnPjFnL3hzgLELGDLYImPvOoAgJ6/BEVRc3MllKpQQK6JAnFmWBmM6NU3PDxCW+9SX/AdGwmqmfOV6LdMM7Nj3e3QNvK/i9o7TANN9eNRAVScgTgNcygZGZJlxsKlXDQHSlcS5ItPr4iIexL+gOmbdOO6qkQeUC10nV4ciTo9J53pigipX4MadcPEKbKb+1gBlMvlgNlTfGimoX0sw1ar9JKdK8tqHaL7SnnsO6NY48JpHd40HLdp5fGnGlUqOyngxkAphKpU6zUR3712ZPGkfSn7ZImRrjTIBBbFSXJdGf2CrQ7os9bRDkdC6NQekN1bqGLGe00LWYNmxe0Q+GfA6enxWv59S/C1kEi9ptq719XadrBHA34LgeNxBATn4NUnaBbRHGqNqsuZqh6LKcjCjOBcPHJ0dRDTy0G1alMK7XTUZ4A7ZWBWJmV4t8KtAK9NKg4grTtzC69ZtlxMTNTTz2iB4ACAEA/tr5q3jPu6VGN3ZVeTTrMNIauT6BBMuzf5+oBtUj2YFm7dPwYaT0FnMyoh/JGxDd86pzJemQZbFW/hGe9zHeZ4d2pPj/1mkLL2dYCN2Zsr7BOmyOG/CPSS33JADNLZCVp8MMd8lsQ9i3iWn5lVa2/DGY8elVXXPpUwHXgtTncvDJHrM3ZhbbUQACgpx0XC11mLn/B29ZTu1x7v+Zp87nJTLM89GlnHNhpXG9WSyz6io8IIL3NAL7e671UAAYzh9nnl+24BzwwHZFpZzhZzHj6KlL1zJr+ECdJgTXhArG1FD3+lYLX8rmd6t1kxPdSXWZW6ccf4eHWyw0xeVt52czU60PYJ9B6c9AiaA/6I4rYHN8cwc7Xa8dKyb69L5wOzEPJccPMZE0hrQfPR64zhdGTqqSs2SFEXue8OYsZDxO1yh8UwVzIGjm1fQKNG7NWnJTztFHJ1ImWW9IndKQA1ZKvc3ttXG/M8BUJsNosLtfqIydPx5EPFOLzNGGUMh2aNwSxg5lGgHGDA5RNr9dpiu1pSI/OF4eMQmuoh+ksJpPzjDb4R3Q3mYp/zuIym82kT+E8+6eZhGsmL5zN6AdmVHfcmBjv5N6R7De1D9NMwnQw0wiwLZ3mkiQ/7xxThxfnm/f7zhJU7KNQ/KfBXm+WtpvLnvA27aXZPOz3Nz5JdNpsNqfoE6MA7S7Ejbn7sEKcTmaaAtrWkQ3r9iUf7gp+Ci50oP98Wwq7mfEczpFD5/PP33n8MNqyzMp7dSVg9DDjcl52zxD+xCX6iWiPa0hM5bmYWcT0M+PZgf/2IQ8Qf7Cb/ufx1ZZl9mZ97nA/9zHDibUeP2/bwvEElAcQdvLFmXXi0spFQC8zjuzajv+69lqP+BZk2R7TUNle4dMDzLgSYLvuuHuizyMELp3udVX7rR9gxiWMDX8cfuB28Bkw9pD/mRlH0N86ZmMUaHcgN7v8bF/ziDVz2SrzBC4zdWmEC9Ym0tFrFzvm0scMrRxHNloRbOdSU+T5XXMpzB86FZJkJX9yfig73+sr//WDo4kfN31ub9PJBcy9ppsZpCdHVLk0iUVXlmuIlLI7FDUJZo/UtM9TD2SOAbDg0rDxxWbJUPz7d2CL30qASTal3/uagU6do9l0IeDZNV5z/gYYKB3I9kptc54f8fHMGQBlacooRfRqh+D/UW/26I9NZdHLuYy6sS73947izsh3xWdid0ZRZBBDN84NzQaTdCBsfPWomlCrYBY/YInmDM8ZISScr5cIqM8pyNKZXaA1jGuTifBCzJNO59l7TQF/0TZpFjNAt+6vWnQ9CNCjmUlKT0fsT0ybYp08M8ke6VPOTGMEyhjrDGD/4XjBFF3nujwbq+5ms61qw00jg9smzWQGb67KImlbq24olE+snlU+p7Rc0/5EPm4S/5XvoM2MCELRf1sK+h5mRAJxmxq60I3wRbQwjuo+yWN0MgPQTBh/MeMrbn1/ueyu/u4lRoDPl8kXGJp9nkf5XJwKSXw+Z0JCxFt8mVTWTi3ziX47KaLIWD46zEyKutBEPUo8mN9e6NjcJMujoiNCQv7AQnwoGsCy20tJHrUulQ1YHURcr9OsH3ERnjo6gKbX9aGILpIJoOe6Gpxc9JrUYQarZiLMA0kFZdPLeretDE0H7iVGdEGKV76EILt1LNnxET6jXpxPChAmkXHwjyvGZRVJWFpfemBMVoKEF8avx6ojI7rM8AEgnRREnz2w8AJ/Xql49iQKkN/Pts3gKY4iio3sKl6hGgCS12wj3xSfdNcvWTUpK/xnPpkyVk97fs/5RzSDoQNUNms9J/BYO+/LqaSwxQywRTM29s1DhFQ1UzRYf1FAJFPOTvRWBco7DJGLKuAfFDOVLAKiYiBBkYe2xeYE4iOVyW5ZRSE5V6xbRGMwE1E5LQmg9LyeZsGcLz4zwcyOq/ZgmiKtM0kuIlU6TcUhhweqGzAT/VDGFNMk5n0U6NRqfk/KHzOfrBHrab+hQzl2j6DoyxSTROGlXjPXYiKpKg3ODJ9QzTAPr4M/tpEOiN0lir1Mho05y/g3DfaZTwrOe3g4VODlxeHAL0pkhmABje+VyT/4Z252RbdV2K6+NpjJAISyI9onvqYJ79XFKRP/pFf+iX/iTMiZveVboEVJyHyXT8ihCIBFqgGcBODm2i/PqGMaG0w3/DH8jyQGqjpqlf6cq4NYv/rX7dhTXd16Zbpbpojpupmxt1XIeX8wIIcIQ2mQzljXG/JHX9u24KYAFDOTAKjSkDmVUdgd1bmGWdpO1TWYCVNgHWa4JZRfK2S1ZL9QWUyVQzcAq8aO+pf+XbeQt0FOC1GirzO7t3Uy9uHxQu1++BfbD9YyRjTe6b7KK6qsGV02IUp/4Q3djcuh5ZAbM/llTxSUOTtw7jtr0rJRzZqZU90FRxRnRPtVkzS1wZYvwWQmNpipExQXFPXIyWTJ1GqKXX3faLOMgq5xmxw8SFbyjY1Tq2Q6KMyn3E/61NeDvQu00jKNnOSMX94MKZfUA3d6fbsdjaMsoJU7drUD7GYHThzMZLoLiCoGnN86MqL0Nti/mzN1PCnAJuRXiaVCtKTTgIaZU2v9CMATE3eDt+SJKVKhl/wUrbD9f0IxaJH4GnjWiwVp/iMRpUP3gTdcEMj7KyklKqVq/cCshrKYEVUDYj3J1SZoTb3teiew3rZZNdcZxWdrzuzrFlTq9t0uRm6q92AcANIwc8RbGsoGpMdk05pfETfDoln4wAEidyHrq59tOnlqL+Rf12FLlnzjRO6k7ogByY1O3J1kNjP8u2/kB7LH+OpAZwqUzm7C2WAmVxqjxUykL/Ng1tzP382NZdeJ1zBTNbX3Ij4ir+LMNKdMiWKgTLSH/XQuChcnw780g9Yr98MTTWqeQXDpUWlw1UckM0l362MzI2o6CZ8EypBs0dsualxuLTSY2ej9jMlMya1Bc/tiNxlmpnFf3Zi5DdcF8sHlJ8/4zeT9MDVoFvgTHFycvlf1c2FifAmRLVLIXv/WmonOi4TYlRp5R91lzV1mslSdaWAxw0V6tyd3vdaMD6NGlWtKOswIgzk5PKfcanixsY+SGfrVILjjaMBdq+xPjjhBhK0AtHlrmJGdHqBKo8qp+3jILjO8C4/i/xYzPn9q5z5LHDbMLFoKQA+gDjO8qfi1pelTYgZZX1Wg5wxHH/rnDCZ3hEHOcAuWlGohWKORxDO154z4WwY68YBv/5yHdXSYOYE+BsRiRojBzoGEJAHsjKllzcx81uTU8T2PFNBdZiJu4hLqzK7/AfQV9TnL+kjcdzGd3rEN5tP/lqTGe0R0Hl9Hu/lR12Znf2MmQji2KmvBZTZbzJANBT2xbGb4QtM99m5HoRMOuTarfIX6KcJ1LRejLjN8jalcuao/hBPtmQjosE72ocCamLtc7m1j1pgzLqJolWdhdlAeRt5R5zIUS8mNGa4TbvyRGHFZkNWKzLet4SAjZ2EYfuVbUWulLZ7NjKiZZuuQ357tJcN+wFtwmYdhuYj0pZVqQMbXTv4K/5Cg/t2QLjOiwtuV6PJTyPuq+hwK2H2OJnj3KfozYuuZBahBvme8Z7yU0ZnsmC/GWWBigiiPpsSGS+XmVuFnpGkcM/pPq5uEHPbSNEWkCEE9kGuPZosZQQ1CHKfeTG0Rw4oCZ4s3QJrJTAwDRmUTGVIvFo88qpYYzGTMVRTxc5i7dYBLc5ydp9Sy+7wTWeq1FbJ/9lQ0eX5UFYU6xJCLnhCmvvIas1Myr5VGnW0ZCAc3CzoeTXnABvVYsr21nDBPMrNrN3JdKQd5rP0V/i4B6W5WA6wQDZipN02FLx6SWldvjHPfKnhulI0sXYuNa51JXdfds/Z/04BSx60k/DzKv4kRk5Jf062iXX0VeRTxvzq7yggXffFLD+13iNBds9i0GxCKmF5fM8rnZwgvHDsVsCXQwUEMnX5iZd59mGov4DOxd50OaC00R0cZzeL3p3M9C1d4xc+KFom12Fhuh8L+wY307yaVkyvCS46dDu1wmpGvZ58ihPHTxPxvB1cN2E5meOq77DNPOqKrtILUdPnrc4afh4TS/y597sXO9HCC12QIryJr2zN4LNPH48IuLyx3zK2wGI0XRUbI1zowXQXwx2v+X/wbOjqLrE0AeixNPUtV3+NaHvGDIEOO/hYwGYvKXw3rl2hd+NNr/9uwg+EgtCDmWTGJEYMo2Te5G/f/pMmInwUZTCnD8cdN3whHKW1jyY7jEvNO9KbVjL8d926UznDaUP3FiBfBlVYDQ/UXI14F39p00mrcXv4KrAwPJ2zGE8t+C9r+ZYBxiflFKJtI52CJ34jXoz6tZlxifh2ILBwct5e/EWtAevm7CTK/GYfp6MEcMWLEK/H/xVDmXN25yQUAAAAASUVORK5CYII=;" vertex="1" parent="EZaMfleqCFQmTcPry3QN-102">
          <mxGeometry x="20.829999999999927" y="30" width="189.17" height="56.89" as="geometry" />
        </mxCell>
        <mxCell id="EZaMfleqCFQmTcPry3QN-101" value="IDIR Authentication" style="shape=module;align=left;spacingLeft=20;align=center;verticalAlign=top;rounded=1;fontSize=14;fontColor=#000000;strokeWidth=2;fillColor=none;" vertex="1" parent="EZaMfleqCFQmTcPry3QN-102">
          <mxGeometry width="210" height="100" as="geometry" />
        </mxCell>
        <mxCell id="EZaMfleqCFQmTcPry3QN-106" value="" style="group" vertex="1" connectable="0" parent="1">
          <mxGeometry x="1505.75" y="-70" width="210" height="100" as="geometry" />
        </mxCell>
        <mxCell id="EZaMfleqCFQmTcPry3QN-71" value="" style="shape=image;verticalLabelPosition=bottom;labelBackgroundColor=default;verticalAlign=top;aspect=fixed;imageAspect=0;image=data:image/png,iVBORw0KGgoAAAANSUhEUgAAASwAAACWCAMAAABThUXgAAAAeFBMVEX///8CCjuQk6lQVnjAws4RGEego7WAhJ1gZYTf4OZwdZAhKFOwssIxN1/v8PPP0doIEEDz8/bV198aIU2Wma47QWf4+PqqrL0WHUrDxdFUWnsSGUdpbovi4+lkaYdKUHM3PWQnLldCSG0kK1V3e5a2uMaGiqGbnrEnzHUiAAAIF0lEQVR4nO2a2ZqiOhRGUVFAZVRBy3ms93/DI9kZdgBRbKu7z9f/uhICJFkZ2Ak6DgAAAAAAAAAAAAAAAAAAAAAAAAAAAAAAAAAAAAAAAAAAAAAAAAAAAJ4TRH+6BP8L0tV8sxj2pm/cmg2Ws3H68RIZAn822XRuxtWkZPfpsky9waRHPJG1jV13leXWuWxY3rj4cKF4pssygzB/fqWFKyo0+FgxZHditMiKvZO8NDl4mTnv08lrx7xjT9JwY6bSRHE8ymDUMYMPysoK051ekbVa2BcOtK4jnbh1LMBIPelYT/NVml8e7en3uGMGH5KVz09WdzIkj/rHpX6pamlpcd6xEFpWb1VNSnXphKwv+u11zOAzsoJjk6fl/jKKH80LftMdfUqbi4N11wnYyNpUkwqdJGRNqXGCjhl8RFZUHX1J6Pfdbdstc3nlaR5vt/H3SR66lLq5/5zJ34MS/5ViGFnrahPtbVli0loX3Wr5IVlj5ml2707Z09dMuqS+p8folU6c5Z1Z4apniPPDV4phZPUqHrYmRWrfFtfuoclHZK1VSRbui0NHDgs2t8RJUy2dN2Xt7ZRbTdZbfEJW1lKSYNo4MYzr2V4elKSrLJJuzwFHk/CnZbmNslTE1Rg6DMTlVmxAyme1S7vKojddnyfEVLi/VtZcz/mNsqhG9qubWr423XWVNRaTecgTRD9Opn+tLDPnN8raiKTTgwfmQYkcSVKWOGdMrrxBODmeNlcmV8qi+TBmjxMvD99lRTQZpOJnOdnnhV8+8sLuLLluFufjSSwwarLSYrM4TsLBjS0/6IGR/hXYzf+GLBk5xE1p96r0WOcgWYV4iaj5rzjqx0++q7JycSmLzqlLuVyW6a598fM+akcz9cgdq95V57SLqrKisQnE91oXlcJz3Eo49L4s0tGbNduqy0qoWCQrMlGTKKd6A0tZlPfS1FiM+YnTKivnQbLpOx47ewxsWTLakSTfVik88wL+ZVkqSkwuTbFGXZZEyNoe5ZFq10Nqy6L5XIdwkZgMvXZZ9oJCLbS0K5HVccpljay0nn6n0Hm27v11WVkik5PBqOarVVYeUhH7kZNPz+L3ly3LCdlJNeSDVlmH+9HYzVY0l6puKSu2nN+zWt2bN2SyZNrprmJ74VZYtPcpWWy1di+q51qzYMOcNRWUXYhKdqbpPwpZHlqWEJCoNjiISjmtsu4PpCH+zQsd8qx0NxOyIprh5CKUutwk/ylZztTapkj2I7P8aJBl0kSXTNR8Sj00tGXRwJNjieK34oksvajeq4coBeYt9MVkUZPphQIdzk0pNrHGXla9J8vZVjYehmMVdtdlLSsPvuhjesjKkkXVOrB6DPMnsnTIRz1eBDUUOZtdZGonISvlLxxHNU9oSvFw9+dNWffcx/p1TaUfPZI10ffQHWY1czXyjCw6Sb1PRMcb54ks/UBac5cLiZyEsBf2QMsipV/VpOAHZTllcHngurxnsuhNx7bnU3PCyCKlF1O4+IksFvAPVVKstSlGWtZO/GKrfooURj8r605U+CZiKZ7IYkIka11vlnbR9fT1o9pksUUQrdMc1Xv4/kWsZVELsz0Cuvjy47JKrirOXKbtsuiVlAwNdF9qy6JZ3VWTS/+ZLFY3khWpzsLbJdeyqHWH1WL4v0WWiYe/22XxfUZOZMuibXxfnqMo4slypybLq9c6UbIelOLrN8ly4qFutw/IEvFSkjonVYffImvwu2TJWGXSLosuCgdVKsNQDr8Rvduub8lqG4ayYavcfkLWQnwHr6S4ugYtsmjtcnGasCZ/MbGfRIVnfPHyuiy5l8gyCLSso/jV+EnmVVkTk2e7rLDpgTQpJ06rrJU4rGyxW8Uc80KZEKK7LMqKf7A1C2kK5hs/iT6XlRx2c+tjRbssv1YOUz2nVRZFiknj5yM7rDjrEmT8+a/LSilgZ/HBRsuaW1k1lOKhrG2R1c4ZWW7DHXIVPWq4pew0bRE8tanZ8cvFPxgKU0xVA72hpCLYrrLo5cCqna61LJoL12bZ54pivBDB14n0NmH5RqqT06Il4SLlt7B5oyyzkKbBMdG9mFY2t7os/a1Qie0si5431FnJbQexkKY2M3PnSde1g6w8Ky57vuJr/kAg9zHY3p+Ms+pB6VI7JCh8HciBmB7FYVCXJTtGb6haq7Ms2aRqZ3SVMFlyP07NWjSbfZlSPJMVuX3/oPb0FMsHH/HVjkPy1Xfj2O2rncX6ckemnDa7/bk83tJgWIihH9C6Y8daQMsqKq3VWZZq0r2ow2jYM5Ggui/xRFN8U7XjV2TVupPmXJ/NKrZsqF9bstg2OA1G1cKhv5GdRw7Kiiy5a6CHendZagcrOe2+7qeTPpMl19K94X7jy89+HivFQ1mraneSJIt+y/8J5vX/KCWyzJasrblOzlxxpV3kJmdtkS1eXmd9+Ias1Po0UtgfLKr/mRrzUrwQlGomA6/hFWkTXdb2TfrfbJYs56ptqWk+2vHm2VS/7ijEJoH56v2GLCc3RmZu9VOYG/IaqxCpi6xaxNVCft2oSW59upmAJu2X6N2iYEdWj+ZvV9vbgm4ML+a2TNzG3rDz+6GZM7cimabkW/miFx5jcZbt8I3ECR3IZWNh73hL7ScIrnIErveFuUFcVPs7nULJeqU71YmyOM6e2Q3iVVYZ0nkQx0HXv9C+RRTHj8t3L37W+k+0Cm6n7vSPE3XvTgAAAAAAAAAAAAAAAAAAAAAAAAAAAAAAAAAAAAAAAAAAAAAAAAAAAPgH+Q9skmdZcBf8zgAAAABJRU5ErkJggg==;clipPath=inset(30% 1.33% 30.67% 0%);" vertex="1" parent="EZaMfleqCFQmTcPry3QN-106">
          <mxGeometry x="20.079999999999927" y="36" width="169.83" height="33.85" as="geometry" />
        </mxCell>
        <mxCell id="EZaMfleqCFQmTcPry3QN-105" value="BCeID Authentication" style="shape=module;align=left;spacingLeft=20;align=center;verticalAlign=top;rounded=1;fontSize=14;fontColor=#000000;strokeWidth=2;fillColor=none;" vertex="1" parent="EZaMfleqCFQmTcPry3QN-106">
          <mxGeometry width="210" height="100" as="geometry" />
        </mxCell>
        <mxCell id="EZaMfleqCFQmTcPry3QN-109" value="" style="rounded=1;whiteSpace=wrap;html=1;fillColor=none;dashed=1;strokeWidth=2;" vertex="1" parent="1">
          <mxGeometry x="1760" y="573" width="190" height="200" as="geometry" />
        </mxCell>
        <mxCell id="EZaMfleqCFQmTcPry3QN-75" value="" style="outlineConnect=0;dashed=0;verticalLabelPosition=bottom;verticalAlign=top;align=center;html=1;shape=mxgraph.aws3.cloudfront;fillColor=#F58536;gradientColor=none;fontSize=18;" vertex="1" parent="1">
          <mxGeometry x="1760" y="530.64" width="78.63" height="80" as="geometry" />
        </mxCell>
        <mxCell id="EZaMfleqCFQmTcPry3QN-110" value="Cloudfront Public Hosting" style="text;html=1;strokeColor=none;fillColor=none;align=center;verticalAlign=middle;whiteSpace=wrap;rounded=0;dashed=1;fontSize=14;fontColor=#000000;" vertex="1" parent="1">
          <mxGeometry x="1838.63" y="520" width="100" height="37.62" as="geometry" />
        </mxCell>
        <mxCell id="EZaMfleqCFQmTcPry3QN-117" value="" style="group" vertex="1" connectable="0" parent="1">
          <mxGeometry x="1800" y="627.38" width="100" height="60" as="geometry" />
        </mxCell>
        <mxCell id="EZaMfleqCFQmTcPry3QN-82" value="" style="shape=image;verticalLabelPosition=bottom;labelBackgroundColor=default;verticalAlign=top;aspect=fixed;imageAspect=0;image=data:image/png,iVBORw0KGgoAAAANSUhEUgAAAOEAAADhCAMAAAAJbSJIAAAAz1BMVEX////DAC/dADHQADDdAC7//P7CACzBACXcACfCACjdAC3CACrcACXAABrcACrfJUTHJUPBACDbABjcACHXa37oa3/gG0TJG0LbABXbABzAABu/ABHtwMj+9/nbABDlp7H23OG/AAz77fD01tzdipjqfo7siZf3zNO/AAD75enjmqXzusLkUWjwpbHum6fxrbfmYXXQSV/odIXhME7cf43yz9XlVm3skZzZd4fjRl/TXnHLNlDGEjjOP1jPACbSUmfZAADnr7bMAADjO1n1wMmAEZj3AAAMDklEQVR4nO2dfV/azBKGw2tAiEpQCkRoABWpim9Vq7VPzzn6/T/TSSKRhJndze4MoM8v15+tTbkF7ntnd3bXsnJycnJycnJycnJycnJycnJycnJycnJychCmt6Xno8G2X8Xa8E87brNkO4Vf99t+KetgNn912+VisVQoVG3v27G/7RfEy+Dqwm3vFEMChQGN1uj3j/G2XxYb59dub7e44F3hu8ib7/+Gr+T0tufWiks+FAbU+2fPR9t+gTQmp0W3WUyRVBiKdFpf13dm87te6C1ShQG29/IVfWd89dRbeItKYWCuX853KufXzaW3qBVGvuN9Hd+Z3tZcgTyxwsh3Rl/BdwJv6dbAly+Twsh3vF/TbUuQMZt3uk2ZPJXCyHfsn/62heAIvUVPYeg73v6P2bblrDI4f6iJvEVXYSH0HefP989krtPDosRbDBQWQt9xns8/h7lOTjtybzFTGIp07IOt+85svjdUeYuxwqjOqv+cbE/e+PJ1mMFbCAoL0XjnZTu+Mzi/6PV05QX8o6kwEun83rTvVKaH5czekqJ92dKXGJhrv/V3g74zOem4Gt6SZPfC+ls3kRj6TvVgWtmAvNnjnaa3JOm+WUeemcLId17W7Tvjyyd9b0mwsxc8ZL9hKjEUOVrjeKdy/jBsG335PuhdBs/57pgrLITjnbP1+M70sJ1tWCahXIt+U60qSWLoOx6370xOiqnpJEPaj9HTjo3sNE003uHyncBbXHNvSdJ9/3CNjb0mCZfvBN7iUrwlSe1w8dADm0NiJHL/mOQ7QU3kEr0liRv/xic0r0nSaI3+EOZ3/P/wyQvS/unjwTeGqY9SPzOfcB23GQUW3eU0k3nqY3jm2TEoshjMOzt3iSdTUh/QIqTjHZPHhPSuEg8mpn6Kxr65QOuC73tYLib9YFCgpv6S+g1B4SFDzC9YpH0MR+rHCv8SFM75rKaX/rKM+T6mrWOCwqsel8Dm7cqjuVK/UOj/l6DwzeVSOPRXHu2PuBQ65wSFsyGTwKC2X4Ut9T3K4HTA9SntwnlPttQfUeqoSocn8qPafpUXpsBokSrFJ57IT6V9zPc+i8DGb4pA65ol8ss72LPptX5E/Zmk8KSpfv1qVtI+hif1bZpCnshv4kPjMYtCUuBb1jmHmYK0j2FJfYe29j/liPyeL3g6S61PVDhmiPzdB+HjOVLfE/3+MsLwHiJpH8OR+iOaQIse+Tuvkscz1PotosInciC6WNrH0Gt9YuBb1i21Bi4XZY+vNKipbx8QFZ5SI789lz6fnPr2L6LCS2rku/Jx8XhEVNj6QVRIDURh2sdQU58Yh0Eod2kKh6plhQnxTXSoHTfEyJekfcwfWupTA9+yaO+hC37Dl6t/cEQLjDOqQFrkp2byI2YuqDNoqe+QFZKmvV0wDTb/H/A+UuqTA59WA5c74HGdf15W/4g0w0+OQ8t6JAQiTPs3twTtnZL6rZ9khYRp7/IuSPun3RJcSBkTpqTIgW9Z9+aR3zxZfZjfLZYQfyekvkPfcOObv4cuSPvgS11CPlgT8zLRoXdjmK90165Xn1XpRf2lDuiDMa/1+wwtYLumgTgEaX+1UPh99S/Ma32bLtB4pRup7cNHldAM+2aY+tUCg8IHw8iHaX8fjnHDLugR+PKYzvAzBL5xDYzU9tGaeagQqcsNxzU2PQ6Np71h2r97VtTJDvtDDFOfOOH9jtm0d7kJ0n6+VNgHOW24rt8HpmXAxCjyYdpbezsfCpEWGLPUJ63/xsyMPqVtkFOLnoD3/RYeGJyazfDT69+AcdkgEGHax2XYu0KkB8Yo9VssPd97BgpdMFyMR3+LPTOOv/oDJqlfBaWYEa/6kZ9otIyJ68yFQqTqMaj1SS1tS671p71h2ld2yimF1ToYnBrU+qSWtiX6NTDSevFRZsY7uxzQyWRQ67PEocm0dw9MqC1Ht7FCZLyln/oM9W/Im27kI2k/+Zh2/didBwen+j38LIEfFeZ6tE/BM5ZtnB8KkcGpduqzxKFBDTwEo87B8pe03GHpgXfaP9NVyLM7SLfbG0n7xOh9qRAOTrVT32ba/6RZA3fhWHFv+YSlQiTMNFOfKQ51p713YW1/lPgmJ/YBw8Gp9aKV+o0/TAr1ur3dN/CA5DRBQiHSkaaX+qQO7yRaNfAOnMmfJeuv5F5uB4ybB1rr+kyBrzntjaT9afI3VJK/Qq3UZ4pDvZXu9LaKiLQXJxVWC+CHtbr54MjPEJ1ubyTt0x+BkuIl6qQ+U+AHb4LG9xDW9ivVV0phHZqhzgw/HDMYotHt/bGJcsl9d6ecoFRN0EDmWTRS32bbC5y923sIX/FJJ8XetyQvcIEze+qzTAe/k7nbG9lWoU/mWp8tDjVWursw7fXJnPrEDu8kWWtgJO0NqNgZU5+p/g3JOu2NbqvQJ2vqk7Z0pckY+eU2z3+XtZvP4fhOLP7LbJGPpL0ZGVOfLfADsn1Ke1zncWRMfWqHd5JMkd+EaW9KttS3Gc/jyVQD9/gOx8nUzcdW/4ZkqYFZ0j4mS+qTO7yTZFnpdjlP5syS+qwKr9SRDxstKWSZ4WcM/Ew7npnSPiZD6pM7vJOou73LRd6DxjKs67MqVEe+YBOlOerUH7Ge+aWMfCTtKxrA/9EfqRTSO7yTqCIf21ZR3MN42cdAVjqVqU/d0pVGFfngyISgIHHLGKlZjA/O4L9X1fqsga+sgbG0F+x6w0/3xLq3FPv1GTq8kyhWuuG2CssXmJPg/NI+/CoquvlYWtqWyKe9sSMTRO+6QCEyc6qo9VkDX1UDI2kvXHQUKERmThWpz9DhncSXKcTS/kr0D0Sn7CLlrHyGn1nhQKYQS3vh7lqRQsw4pKkPF65oSJymXINpL37PRQqrVTiBLa316Rue0nTE095Y2ovTRXgWNLaQJEn9ap1ZoWTa2/XBT0uaG4QKsTl6Sepj1kRCXANjmygl4SI+zxvbHCKu9ZnjULbSjR2Z8GpygwfmNeJan22FO0Y47Y0dmSDbSSRWWK1DrxlURanPtsIdI+z2xo5MkI1iJafOY14jTH2WDu8kvuBTWi4jPywbxEoUYl4jnOGHTcZEBoK0wI5MkA5iZTcHYO+LKPV5OryTlHD/x45MkPiMXCHmNT7+JjJ1eKdeNvomItsqhHWTWiGyb0+0X7/6jV0hPu3dQz4r8mpZrhAxSHyGn6nDOwlaA2NpX5FvWJTf94QNVNCde+xxKFjpRmp7VY+Y/I6SkQ8fiKY+c/0bgnV7owckKU4lkivEvAZNffbAx7u94bYKdVe4XCE2rkFTn3P9d8EM+ke5g1ifqjNFcZMO5jVYre/xX3KBFERt2GhpVVRN4QqFqNf8gqlfX8MNF7Dbe/f6EPCgWktV3YZUfz4AwKtp2Dq8kyAOslsDKJfDlfc92RCY+YwtbUsOWQ761L7RSvBO87W0LbniuSiBRWHjjD8OAyYXQ4YzdxkUVr3f67pw7mjPJR+jSFZY7b/w9bNBLovUE+qoClv2Wj6gSwaPbZrj0BTazq/1XzE3PhxSLIeisDH6u5l7Av0nguWYKwwMZnM3eE/vjC3HVGHVWavBQK6K8FLxdSpcu8FAKo9NI8sxUmg7P7dxrez41uSqOQOFde95Wxcg+xeutuVoK9yowUCm2qMcTYVVp0C5goSDq2JvffcBF1rIduiNU5nXdEZyOgptbysGAxmf9LLvFM6usD7amsFA/Af2m8cb3p9tGgxk+prRcrIpDEYwnP2xPASWw6aw1eKf8OVg3stgORkU2mfHn8NgIIOTrtJylArro4MN3zKuxey6q7AchcKGd7Pme6nJ3D91pSM5qcKqs//5DAZy3pGNcmQKW/XPaTCQeVNsOZKOIe94E5fD8zA4GYosR6SwfvapDQYyuxbMV+EKG6Mbf9svWZvJK2o5mMLAYNY1ib1ezvcQy0EU9l++isFAkClyoNBufdoRTBYGp25NqrDufTGDgaxaTkphMILxt/0CGZikpsgTCqvelxjBZOEtMV+VOJGusNlJ7PWytJxYYWsNfVtbZXC6mCJ/V7iRVbJNMzuM5nJKkcH89bf9ctbCJCysSqHBfM0RTBbeOm6pX/83GQzksvQJJrFzcnJycnJycnJycnJycnK+IP8HYLEs5EL50UkAAAAASUVORK5CYII=;" vertex="1" parent="EZaMfleqCFQmTcPry3QN-117">
          <mxGeometry x="25" y="5" width="50" height="50" as="geometry" />
        </mxCell>
        <mxCell id="EZaMfleqCFQmTcPry3QN-107" value="FAM Angular SPA Code" style="shape=parallelogram;html=1;strokeWidth=2;perimeter=parallelogramPerimeter;whiteSpace=wrap;rounded=1;arcSize=12;size=0.23;fontSize=14;fontColor=#000000;fillColor=none;labelPosition=center;verticalLabelPosition=bottom;align=center;verticalAlign=top;" vertex="1" parent="EZaMfleqCFQmTcPry3QN-117">
          <mxGeometry width="100" height="60" as="geometry" />
        </mxCell>
        <mxCell id="EZaMfleqCFQmTcPry3QN-122" value="Download SPA" style="edgeStyle=orthogonalEdgeStyle;rounded=0;orthogonalLoop=1;jettySize=auto;html=1;fontSize=14;fontColor=#000000;" edge="1" parent="1" source="EZaMfleqCFQmTcPry3QN-120" target="EZaMfleqCFQmTcPry3QN-109">
          <mxGeometry x="-0.2319" relative="1" as="geometry">
            <Array as="points">
              <mxPoint x="2079" y="1030" />
              <mxPoint x="1860" y="1030" />
            </Array>
            <mxPoint as="offset" />
          </mxGeometry>
        </mxCell>
        <mxCell id="EZaMfleqCFQmTcPry3QN-123" style="edgeStyle=orthogonalEdgeStyle;rounded=0;orthogonalLoop=1;jettySize=auto;html=1;fontSize=17;fontColor=#000000;" edge="1" parent="1" source="EZaMfleqCFQmTcPry3QN-120" target="EZaMfleqCFQmTcPry3QN-84">
          <mxGeometry relative="1" as="geometry" />
        </mxCell>
        <mxCell id="EZaMfleqCFQmTcPry3QN-126" value="API Requests" style="edgeLabel;html=1;align=center;verticalAlign=middle;resizable=0;points=[];fontSize=14;fontColor=#000000;" vertex="1" connectable="0" parent="EZaMfleqCFQmTcPry3QN-123">
          <mxGeometry x="-0.2068" y="3" relative="1" as="geometry">
            <mxPoint x="3" y="-82" as="offset" />
          </mxGeometry>
        </mxCell>
        <mxCell id="EZaMfleqCFQmTcPry3QN-124" style="edgeStyle=orthogonalEdgeStyle;rounded=0;orthogonalLoop=1;jettySize=auto;html=1;fontSize=17;fontColor=#000000;exitX=0;exitY=0.5;exitDx=0;exitDy=0;" edge="1" parent="1" source="EZaMfleqCFQmTcPry3QN-120" target="EZaMfleqCFQmTcPry3QN-138">
          <mxGeometry relative="1" as="geometry">
            <Array as="points">
              <mxPoint x="1600" y="1180" />
            </Array>
          </mxGeometry>
        </mxCell>
        <mxCell id="EZaMfleqCFQmTcPry3QN-134" style="edgeStyle=orthogonalEdgeStyle;rounded=0;orthogonalLoop=1;jettySize=auto;html=1;fontSize=17;fontColor=#000000;" edge="1" parent="1" source="EZaMfleqCFQmTcPry3QN-131">
          <mxGeometry relative="1" as="geometry">
            <mxPoint x="1500" y="820" as="targetPoint" />
          </mxGeometry>
        </mxCell>
        <mxCell id="EZaMfleqCFQmTcPry3QN-136" value="Authenticate &amp;amp; Authorize" style="edgeLabel;html=1;align=center;verticalAlign=middle;resizable=0;points=[];fontSize=14;fontColor=#000000;" vertex="1" connectable="0" parent="EZaMfleqCFQmTcPry3QN-134">
          <mxGeometry x="-0.0668" y="1" relative="1" as="geometry">
            <mxPoint x="1" y="36" as="offset" />
          </mxGeometry>
        </mxCell>
        <mxCell id="EZaMfleqCFQmTcPry3QN-121" value="" style="rounded=1;whiteSpace=wrap;html=1;fillColor=none;strokeWidth=2;" vertex="1" parent="1">
          <mxGeometry x="1370" y="1097.43" width="210" height="219.57" as="geometry" />
        </mxCell>
        <mxCell id="EZaMfleqCFQmTcPry3QN-115" value="" style="image;html=1;image=img/lib/clip_art/computers/Laptop_128x128.png;rounded=1;fontSize=17;fontColor=#000000;strokeWidth=2;fillColor=none;" vertex="1" parent="1">
          <mxGeometry x="1260" y="1066" width="279.25925925925924" height="94.34782608695653" as="geometry" />
        </mxCell>
        <mxCell id="EZaMfleqCFQmTcPry3QN-118" value="" style="group" vertex="1" connectable="0" parent="1">
          <mxGeometry x="2028.75" y="1150" width="100" height="60" as="geometry" />
        </mxCell>
        <mxCell id="EZaMfleqCFQmTcPry3QN-119" value="" style="shape=image;verticalLabelPosition=bottom;labelBackgroundColor=default;verticalAlign=top;aspect=fixed;imageAspect=0;image=data:image/png,iVBORw0KGgoAAAANSUhEUgAAAOEAAADhCAMAAAAJbSJIAAAAz1BMVEX////DAC/dADHQADDdAC7//P7CACzBACXcACfCACjdAC3CACrcACXAABrcACrfJUTHJUPBACDbABjcACHXa37oa3/gG0TJG0LbABXbABzAABu/ABHtwMj+9/nbABDlp7H23OG/AAz77fD01tzdipjqfo7siZf3zNO/AAD75enjmqXzusLkUWjwpbHum6fxrbfmYXXQSV/odIXhME7cf43yz9XlVm3skZzZd4fjRl/TXnHLNlDGEjjOP1jPACbSUmfZAADnr7bMAADjO1n1wMmAEZj3AAAMDklEQVR4nO2dfV/azBKGw2tAiEpQCkRoABWpim9Vq7VPzzn6/T/TSSKRhJndze4MoM8v15+tTbkF7ntnd3bXsnJycnJycnJycnJycnJycnJycnJycnJychCmt6Xno8G2X8Xa8E87brNkO4Vf99t+KetgNn912+VisVQoVG3v27G/7RfEy+Dqwm3vFEMChQGN1uj3j/G2XxYb59dub7e44F3hu8ib7/+Gr+T0tufWiks+FAbU+2fPR9t+gTQmp0W3WUyRVBiKdFpf13dm87te6C1ShQG29/IVfWd89dRbeItKYWCuX853KufXzaW3qBVGvuN9Hd+Z3tZcgTyxwsh3Rl/BdwJv6dbAly+Twsh3vF/TbUuQMZt3uk2ZPJXCyHfsn/62heAIvUVPYeg73v6P2bblrDI4f6iJvEVXYSH0HefP989krtPDosRbDBQWQt9xns8/h7lOTjtybzFTGIp07IOt+85svjdUeYuxwqjOqv+cbE/e+PJ1mMFbCAoL0XjnZTu+Mzi/6PV05QX8o6kwEun83rTvVKaH5czekqJ92dKXGJhrv/V3g74zOem4Gt6SZPfC+ls3kRj6TvVgWtmAvNnjnaa3JOm+WUeemcLId17W7Tvjyyd9b0mwsxc8ZL9hKjEUOVrjeKdy/jBsG335PuhdBs/57pgrLITjnbP1+M70sJ1tWCahXIt+U60qSWLoOx6370xOiqnpJEPaj9HTjo3sNE003uHyncBbXHNvSdJ9/3CNjb0mCZfvBN7iUrwlSe1w8dADm0NiJHL/mOQ7QU3kEr0liRv/xic0r0nSaI3+EOZ3/P/wyQvS/unjwTeGqY9SPzOfcB23GQUW3eU0k3nqY3jm2TEoshjMOzt3iSdTUh/QIqTjHZPHhPSuEg8mpn6Kxr65QOuC73tYLib9YFCgpv6S+g1B4SFDzC9YpH0MR+rHCv8SFM75rKaX/rKM+T6mrWOCwqsel8Dm7cqjuVK/UOj/l6DwzeVSOPRXHu2PuBQ65wSFsyGTwKC2X4Ut9T3K4HTA9SntwnlPttQfUeqoSocn8qPafpUXpsBokSrFJ57IT6V9zPc+i8DGb4pA65ol8ss72LPptX5E/Zmk8KSpfv1qVtI+hif1bZpCnshv4kPjMYtCUuBb1jmHmYK0j2FJfYe29j/liPyeL3g6S61PVDhmiPzdB+HjOVLfE/3+MsLwHiJpH8OR+iOaQIse+Tuvkscz1PotosInciC6WNrH0Gt9YuBb1i21Bi4XZY+vNKipbx8QFZ5SI789lz6fnPr2L6LCS2rku/Jx8XhEVNj6QVRIDURh2sdQU58Yh0Eod2kKh6plhQnxTXSoHTfEyJekfcwfWupTA9+yaO+hC37Dl6t/cEQLjDOqQFrkp2byI2YuqDNoqe+QFZKmvV0wDTb/H/A+UuqTA59WA5c74HGdf15W/4g0w0+OQ8t6JAQiTPs3twTtnZL6rZ9khYRp7/IuSPun3RJcSBkTpqTIgW9Z9+aR3zxZfZjfLZYQfyekvkPfcOObv4cuSPvgS11CPlgT8zLRoXdjmK90165Xn1XpRf2lDuiDMa/1+wwtYLumgTgEaX+1UPh99S/Ma32bLtB4pRup7cNHldAM+2aY+tUCg8IHw8iHaX8fjnHDLugR+PKYzvAzBL5xDYzU9tGaeagQqcsNxzU2PQ6Np71h2r97VtTJDvtDDFOfOOH9jtm0d7kJ0n6+VNgHOW24rt8HpmXAxCjyYdpbezsfCpEWGLPUJ63/xsyMPqVtkFOLnoD3/RYeGJyazfDT69+AcdkgEGHax2XYu0KkB8Yo9VssPd97BgpdMFyMR3+LPTOOv/oDJqlfBaWYEa/6kZ9otIyJ68yFQqTqMaj1SS1tS671p71h2ld2yimF1ToYnBrU+qSWtiX6NTDSevFRZsY7uxzQyWRQ67PEocm0dw9MqC1Ht7FCZLyln/oM9W/Im27kI2k/+Zh2/didBwen+j38LIEfFeZ6tE/BM5ZtnB8KkcGpduqzxKFBDTwEo87B8pe03GHpgXfaP9NVyLM7SLfbG0n7xOh9qRAOTrVT32ba/6RZA3fhWHFv+YSlQiTMNFOfKQ51p713YW1/lPgmJ/YBw8Gp9aKV+o0/TAr1ur3dN/CA5DRBQiHSkaaX+qQO7yRaNfAOnMmfJeuv5F5uB4ybB1rr+kyBrzntjaT9afI3VJK/Qq3UZ4pDvZXu9LaKiLQXJxVWC+CHtbr54MjPEJ1ubyTt0x+BkuIl6qQ+U+AHb4LG9xDW9ivVV0phHZqhzgw/HDMYotHt/bGJcsl9d6ecoFRN0EDmWTRS32bbC5y923sIX/FJJ8XetyQvcIEze+qzTAe/k7nbG9lWoU/mWp8tDjVWursw7fXJnPrEDu8kWWtgJO0NqNgZU5+p/g3JOu2NbqvQJ2vqk7Z0pckY+eU2z3+XtZvP4fhOLP7LbJGPpL0ZGVOfLfADsn1Ke1zncWRMfWqHd5JMkd+EaW9KttS3Gc/jyVQD9/gOx8nUzcdW/4ZkqYFZ0j4mS+qTO7yTZFnpdjlP5syS+qwKr9SRDxstKWSZ4WcM/Ew7npnSPiZD6pM7vJOou73LRd6DxjKs67MqVEe+YBOlOerUH7Ge+aWMfCTtKxrA/9EfqRTSO7yTqCIf21ZR3MN42cdAVjqVqU/d0pVGFfngyISgIHHLGKlZjA/O4L9X1fqsga+sgbG0F+x6w0/3xLq3FPv1GTq8kyhWuuG2CssXmJPg/NI+/CoquvlYWtqWyKe9sSMTRO+6QCEyc6qo9VkDX1UDI2kvXHQUKERmThWpz9DhncSXKcTS/kr0D0Sn7CLlrHyGn1nhQKYQS3vh7lqRQsw4pKkPF65oSJymXINpL37PRQqrVTiBLa316Rue0nTE095Y2ovTRXgWNLaQJEn9ap1ZoWTa2/XBT0uaG4QKsTl6Sepj1kRCXANjmygl4SI+zxvbHCKu9ZnjULbSjR2Z8GpygwfmNeJan22FO0Y47Y0dmSDbSSRWWK1DrxlURanPtsIdI+z2xo5MkI1iJafOY14jTH2WDu8kvuBTWi4jPywbxEoUYl4jnOGHTcZEBoK0wI5MkA5iZTcHYO+LKPV5OryTlHD/x45MkPiMXCHmNT7+JjJ1eKdeNvomItsqhHWTWiGyb0+0X7/6jV0hPu3dQz4r8mpZrhAxSHyGn6nDOwlaA2NpX5FvWJTf94QNVNCde+xxKFjpRmp7VY+Y/I6SkQ8fiKY+c/0bgnV7owckKU4lkivEvAZNffbAx7u94bYKdVe4XCE2rkFTn3P9d8EM+ke5g1ifqjNFcZMO5jVYre/xX3KBFERt2GhpVVRN4QqFqNf8gqlfX8MNF7Dbe/f6EPCgWktV3YZUfz4AwKtp2Dq8kyAOslsDKJfDlfc92RCY+YwtbUsOWQ761L7RSvBO87W0LbniuSiBRWHjjD8OAyYXQ4YzdxkUVr3f67pw7mjPJR+jSFZY7b/w9bNBLovUE+qoClv2Wj6gSwaPbZrj0BTazq/1XzE3PhxSLIeisDH6u5l7Av0nguWYKwwMZnM3eE/vjC3HVGHVWavBQK6K8FLxdSpcu8FAKo9NI8sxUmg7P7dxrez41uSqOQOFde95Wxcg+xeutuVoK9yowUCm2qMcTYVVp0C5goSDq2JvffcBF1rIduiNU5nXdEZyOgptbysGAxmf9LLvFM6usD7amsFA/Af2m8cb3p9tGgxk+prRcrIpDEYwnP2xPASWw6aw1eKf8OVg3stgORkU2mfHn8NgIIOTrtJylArro4MN3zKuxey6q7AchcKGd7Pme6nJ3D91pSM5qcKqs//5DAZy3pGNcmQKW/XPaTCQeVNsOZKOIe94E5fD8zA4GYosR6SwfvapDQYyuxbMV+EKG6Mbf9svWZvJK2o5mMLAYNY1ib1ezvcQy0EU9l++isFAkClyoNBufdoRTBYGp25NqrDufTGDgaxaTkphMILxt/0CGZikpsgTCqvelxjBZOEtMV+VOJGusNlJ7PWytJxYYWsNfVtbZXC6mCJ/V7iRVbJNMzuM5nJKkcH89bf9ctbCJCysSqHBfM0RTBbeOm6pX/83GQzksvQJJrFzcnJycnJycnJycnJycnK+IP8HYLEs5EL50UkAAAAASUVORK5CYII=;" vertex="1" parent="EZaMfleqCFQmTcPry3QN-118">
          <mxGeometry x="25" y="5" width="50" height="50" as="geometry" />
        </mxCell>
        <mxCell id="EZaMfleqCFQmTcPry3QN-120" value="FAM Angular SPA Code" style="shape=parallelogram;html=1;strokeWidth=2;perimeter=parallelogramPerimeter;whiteSpace=wrap;rounded=1;arcSize=12;size=0.23;fontSize=14;fontColor=#000000;fillColor=none;labelPosition=center;verticalLabelPosition=bottom;align=center;verticalAlign=top;" vertex="1" parent="EZaMfleqCFQmTcPry3QN-118">
          <mxGeometry width="100" height="60" as="geometry" />
        </mxCell>
        <mxCell id="EZaMfleqCFQmTcPry3QN-129" value="" style="group" vertex="1" connectable="0" parent="1">
          <mxGeometry x="1450.96" y="1184" width="100" height="60" as="geometry" />
        </mxCell>
        <mxCell id="EZaMfleqCFQmTcPry3QN-130" value="" style="shape=image;verticalLabelPosition=bottom;labelBackgroundColor=default;verticalAlign=top;aspect=fixed;imageAspect=0;image=data:image/png,iVBORw0KGgoAAAANSUhEUgAAAOEAAADhCAMAAAAJbSJIAAAAz1BMVEX////DAC/dADHQADDdAC7//P7CACzBACXcACfCACjdAC3CACrcACXAABrcACrfJUTHJUPBACDbABjcACHXa37oa3/gG0TJG0LbABXbABzAABu/ABHtwMj+9/nbABDlp7H23OG/AAz77fD01tzdipjqfo7siZf3zNO/AAD75enjmqXzusLkUWjwpbHum6fxrbfmYXXQSV/odIXhME7cf43yz9XlVm3skZzZd4fjRl/TXnHLNlDGEjjOP1jPACbSUmfZAADnr7bMAADjO1n1wMmAEZj3AAAMDklEQVR4nO2dfV/azBKGw2tAiEpQCkRoABWpim9Vq7VPzzn6/T/TSSKRhJndze4MoM8v15+tTbkF7ntnd3bXsnJycnJycnJycnJycnJycnJycnJycnJychCmt6Xno8G2X8Xa8E87brNkO4Vf99t+KetgNn912+VisVQoVG3v27G/7RfEy+Dqwm3vFEMChQGN1uj3j/G2XxYb59dub7e44F3hu8ib7/+Gr+T0tufWiks+FAbU+2fPR9t+gTQmp0W3WUyRVBiKdFpf13dm87te6C1ShQG29/IVfWd89dRbeItKYWCuX853KufXzaW3qBVGvuN9Hd+Z3tZcgTyxwsh3Rl/BdwJv6dbAly+Twsh3vF/TbUuQMZt3uk2ZPJXCyHfsn/62heAIvUVPYeg73v6P2bblrDI4f6iJvEVXYSH0HefP989krtPDosRbDBQWQt9xns8/h7lOTjtybzFTGIp07IOt+85svjdUeYuxwqjOqv+cbE/e+PJ1mMFbCAoL0XjnZTu+Mzi/6PV05QX8o6kwEun83rTvVKaH5czekqJ92dKXGJhrv/V3g74zOem4Gt6SZPfC+ls3kRj6TvVgWtmAvNnjnaa3JOm+WUeemcLId17W7Tvjyyd9b0mwsxc8ZL9hKjEUOVrjeKdy/jBsG335PuhdBs/57pgrLITjnbP1+M70sJ1tWCahXIt+U60qSWLoOx6370xOiqnpJEPaj9HTjo3sNE003uHyncBbXHNvSdJ9/3CNjb0mCZfvBN7iUrwlSe1w8dADm0NiJHL/mOQ7QU3kEr0liRv/xic0r0nSaI3+EOZ3/P/wyQvS/unjwTeGqY9SPzOfcB23GQUW3eU0k3nqY3jm2TEoshjMOzt3iSdTUh/QIqTjHZPHhPSuEg8mpn6Kxr65QOuC73tYLib9YFCgpv6S+g1B4SFDzC9YpH0MR+rHCv8SFM75rKaX/rKM+T6mrWOCwqsel8Dm7cqjuVK/UOj/l6DwzeVSOPRXHu2PuBQ65wSFsyGTwKC2X4Ut9T3K4HTA9SntwnlPttQfUeqoSocn8qPafpUXpsBokSrFJ57IT6V9zPc+i8DGb4pA65ol8ss72LPptX5E/Zmk8KSpfv1qVtI+hif1bZpCnshv4kPjMYtCUuBb1jmHmYK0j2FJfYe29j/liPyeL3g6S61PVDhmiPzdB+HjOVLfE/3+MsLwHiJpH8OR+iOaQIse+Tuvkscz1PotosInciC6WNrH0Gt9YuBb1i21Bi4XZY+vNKipbx8QFZ5SI789lz6fnPr2L6LCS2rku/Jx8XhEVNj6QVRIDURh2sdQU58Yh0Eod2kKh6plhQnxTXSoHTfEyJekfcwfWupTA9+yaO+hC37Dl6t/cEQLjDOqQFrkp2byI2YuqDNoqe+QFZKmvV0wDTb/H/A+UuqTA59WA5c74HGdf15W/4g0w0+OQ8t6JAQiTPs3twTtnZL6rZ9khYRp7/IuSPun3RJcSBkTpqTIgW9Z9+aR3zxZfZjfLZYQfyekvkPfcOObv4cuSPvgS11CPlgT8zLRoXdjmK90165Xn1XpRf2lDuiDMa/1+wwtYLumgTgEaX+1UPh99S/Ma32bLtB4pRup7cNHldAM+2aY+tUCg8IHw8iHaX8fjnHDLugR+PKYzvAzBL5xDYzU9tGaeagQqcsNxzU2PQ6Np71h2r97VtTJDvtDDFOfOOH9jtm0d7kJ0n6+VNgHOW24rt8HpmXAxCjyYdpbezsfCpEWGLPUJ63/xsyMPqVtkFOLnoD3/RYeGJyazfDT69+AcdkgEGHax2XYu0KkB8Yo9VssPd97BgpdMFyMR3+LPTOOv/oDJqlfBaWYEa/6kZ9otIyJ68yFQqTqMaj1SS1tS671p71h2ld2yimF1ToYnBrU+qSWtiX6NTDSevFRZsY7uxzQyWRQ67PEocm0dw9MqC1Ht7FCZLyln/oM9W/Im27kI2k/+Zh2/didBwen+j38LIEfFeZ6tE/BM5ZtnB8KkcGpduqzxKFBDTwEo87B8pe03GHpgXfaP9NVyLM7SLfbG0n7xOh9qRAOTrVT32ba/6RZA3fhWHFv+YSlQiTMNFOfKQ51p713YW1/lPgmJ/YBw8Gp9aKV+o0/TAr1ur3dN/CA5DRBQiHSkaaX+qQO7yRaNfAOnMmfJeuv5F5uB4ybB1rr+kyBrzntjaT9afI3VJK/Qq3UZ4pDvZXu9LaKiLQXJxVWC+CHtbr54MjPEJ1ubyTt0x+BkuIl6qQ+U+AHb4LG9xDW9ivVV0phHZqhzgw/HDMYotHt/bGJcsl9d6ecoFRN0EDmWTRS32bbC5y923sIX/FJJ8XetyQvcIEze+qzTAe/k7nbG9lWoU/mWp8tDjVWursw7fXJnPrEDu8kWWtgJO0NqNgZU5+p/g3JOu2NbqvQJ2vqk7Z0pckY+eU2z3+XtZvP4fhOLP7LbJGPpL0ZGVOfLfADsn1Ke1zncWRMfWqHd5JMkd+EaW9KttS3Gc/jyVQD9/gOx8nUzcdW/4ZkqYFZ0j4mS+qTO7yTZFnpdjlP5syS+qwKr9SRDxstKWSZ4WcM/Ew7npnSPiZD6pM7vJOou73LRd6DxjKs67MqVEe+YBOlOerUH7Ge+aWMfCTtKxrA/9EfqRTSO7yTqCIf21ZR3MN42cdAVjqVqU/d0pVGFfngyISgIHHLGKlZjA/O4L9X1fqsga+sgbG0F+x6w0/3xLq3FPv1GTq8kyhWuuG2CssXmJPg/NI+/CoquvlYWtqWyKe9sSMTRO+6QCEyc6qo9VkDX1UDI2kvXHQUKERmThWpz9DhncSXKcTS/kr0D0Sn7CLlrHyGn1nhQKYQS3vh7lqRQsw4pKkPF65oSJymXINpL37PRQqrVTiBLa316Rue0nTE095Y2ovTRXgWNLaQJEn9ap1ZoWTa2/XBT0uaG4QKsTl6Sepj1kRCXANjmygl4SI+zxvbHCKu9ZnjULbSjR2Z8GpygwfmNeJan22FO0Y47Y0dmSDbSSRWWK1DrxlURanPtsIdI+z2xo5MkI1iJafOY14jTH2WDu8kvuBTWi4jPywbxEoUYl4jnOGHTcZEBoK0wI5MkA5iZTcHYO+LKPV5OryTlHD/x45MkPiMXCHmNT7+JjJ1eKdeNvomItsqhHWTWiGyb0+0X7/6jV0hPu3dQz4r8mpZrhAxSHyGn6nDOwlaA2NpX5FvWJTf94QNVNCde+xxKFjpRmp7VY+Y/I6SkQ8fiKY+c/0bgnV7owckKU4lkivEvAZNffbAx7u94bYKdVe4XCE2rkFTn3P9d8EM+ke5g1ifqjNFcZMO5jVYre/xX3KBFERt2GhpVVRN4QqFqNf8gqlfX8MNF7Dbe/f6EPCgWktV3YZUfz4AwKtp2Dq8kyAOslsDKJfDlfc92RCY+YwtbUsOWQ761L7RSvBO87W0LbniuSiBRWHjjD8OAyYXQ4YzdxkUVr3f67pw7mjPJR+jSFZY7b/w9bNBLovUE+qoClv2Wj6gSwaPbZrj0BTazq/1XzE3PhxSLIeisDH6u5l7Av0nguWYKwwMZnM3eE/vjC3HVGHVWavBQK6K8FLxdSpcu8FAKo9NI8sxUmg7P7dxrez41uSqOQOFde95Wxcg+xeutuVoK9yowUCm2qMcTYVVp0C5goSDq2JvffcBF1rIduiNU5nXdEZyOgptbysGAxmf9LLvFM6usD7amsFA/Af2m8cb3p9tGgxk+prRcrIpDEYwnP2xPASWw6aw1eKf8OVg3stgORkU2mfHn8NgIIOTrtJylArro4MN3zKuxey6q7AchcKGd7Pme6nJ3D91pSM5qcKqs//5DAZy3pGNcmQKW/XPaTCQeVNsOZKOIe94E5fD8zA4GYosR6SwfvapDQYyuxbMV+EKG6Mbf9svWZvJK2o5mMLAYNY1ib1ezvcQy0EU9l++isFAkClyoNBufdoRTBYGp25NqrDufTGDgaxaTkphMILxt/0CGZikpsgTCqvelxjBZOEtMV+VOJGusNlJ7PWytJxYYWsNfVtbZXC6mCJ/V7iRVbJNMzuM5nJKkcH89bf9ctbCJCysSqHBfM0RTBbeOm6pX/83GQzksvQJJrFzcnJycnJycnJycnJycnK+IP8HYLEs5EL50UkAAAAASUVORK5CYII=;" vertex="1" parent="EZaMfleqCFQmTcPry3QN-129">
          <mxGeometry x="25" y="5" width="50" height="50" as="geometry" />
        </mxCell>
        <mxCell id="EZaMfleqCFQmTcPry3QN-131" value="Other FSA SPA Code (e.g. FOM)" style="shape=parallelogram;html=1;strokeWidth=2;perimeter=parallelogramPerimeter;whiteSpace=wrap;rounded=1;arcSize=12;size=0.23;fontSize=14;fontColor=#000000;fillColor=none;labelPosition=center;verticalLabelPosition=bottom;align=center;verticalAlign=top;" vertex="1" parent="EZaMfleqCFQmTcPry3QN-129">
          <mxGeometry width="100" height="60" as="geometry" />
        </mxCell>
        <mxCell id="EZaMfleqCFQmTcPry3QN-137" value="BC Gov Openshift Cluster" style="text;html=1;strokeColor=none;fillColor=none;align=center;verticalAlign=middle;whiteSpace=wrap;rounded=0;fontStyle=0;fontSize=14;" vertex="1" parent="1">
          <mxGeometry x="1315.5" y="71.21000000000001" width="353.5" height="30" as="geometry" />
        </mxCell>
        <mxCell id="EZaMfleqCFQmTcPry3QN-139" style="edgeStyle=orthogonalEdgeStyle;rounded=0;orthogonalLoop=1;jettySize=auto;html=1;fontSize=14;fontColor=#000000;" edge="1" parent="1" source="EZaMfleqCFQmTcPry3QN-138" target="EZaMfleqCFQmTcPry3QN-95">
          <mxGeometry relative="1" as="geometry">
            <Array as="points">
              <mxPoint x="1630" y="720" />
              <mxPoint x="1630" y="720" />
            </Array>
          </mxGeometry>
        </mxCell>
        <mxCell id="EZaMfleqCFQmTcPry3QN-140" style="edgeStyle=orthogonalEdgeStyle;rounded=0;orthogonalLoop=1;jettySize=auto;html=1;entryX=0.75;entryY=1;entryDx=0;entryDy=0;fontSize=14;fontColor=#000000;" edge="1" parent="1" source="EZaMfleqCFQmTcPry3QN-138" target="EZaMfleqCFQmTcPry3QN-94">
          <mxGeometry relative="1" as="geometry">
            <Array as="points">
              <mxPoint x="1597" y="740" />
              <mxPoint x="1501" y="740" />
            </Array>
          </mxGeometry>
        </mxCell>
        <mxCell id="EZaMfleqCFQmTcPry3QN-138" value="FAM Client" style="shape=module;align=left;spacingLeft=20;align=center;verticalAlign=top;rounded=1;fontSize=14;fontColor=#000000;strokeWidth=2;fillColor=none;" vertex="1" parent="1">
          <mxGeometry x="1540.96" y="763" width="111.5" height="57" as="geometry" />
        </mxCell>
        <mxCell id="EZaMfleqCFQmTcPry3QN-141" value="FSA End User Computer" style="text;html=1;strokeColor=none;fillColor=none;align=center;verticalAlign=middle;whiteSpace=wrap;rounded=0;dashed=1;fontSize=14;fontColor=#000000;" vertex="1" parent="1">
          <mxGeometry x="1360" y="1317" width="220" height="30" as="geometry" />
        </mxCell>
        <mxCell id="EZaMfleqCFQmTcPry3QN-142" value="" style="rounded=1;whiteSpace=wrap;html=1;fillColor=none;strokeWidth=2;" vertex="1" parent="1">
          <mxGeometry x="1930" y="1097.43" width="250" height="219.57" as="geometry" />
        </mxCell>
        <mxCell id="EZaMfleqCFQmTcPry3QN-143" value="" style="image;html=1;image=img/lib/clip_art/computers/Laptop_128x128.png;rounded=1;fontSize=17;fontColor=#000000;strokeWidth=2;fillColor=none;" vertex="1" parent="1">
          <mxGeometry x="1820" y="1066" width="279.25925925925924" height="94.34782608695653" as="geometry" />
        </mxCell>
        <mxCell id="EZaMfleqCFQmTcPry3QN-144" value="FAM End User Computer" style="text;html=1;strokeColor=none;fillColor=none;align=center;verticalAlign=middle;whiteSpace=wrap;rounded=0;dashed=1;fontSize=14;fontColor=#000000;" vertex="1" parent="1">
          <mxGeometry x="1945" y="1317" width="220" height="30" as="geometry" />
        </mxCell>
      </root>
    </mxGraphModel>
  </diagram>
</mxfile>
